<?xml version="1.0" encoding="UTF-8" standalone="no"?>
<!DOCTYPE svg PUBLIC "-//W3C//DTD SVG 1.1//EN" "http://www.w3.org/Graphics/SVG/1.1/DTD/svg11.dtd">
<svg width="100%" height="100%" viewBox="0 0 500 500" version="1.1" xmlns="http://www.w3.org/2000/svg" xmlns:xlink="http://www.w3.org/1999/xlink" xml:space="preserve" style="fill-rule:evenodd;clip-rule:evenodd;stroke-linejoin:round;stroke-miterlimit:1.41421;">
    <g transform="matrix(1,0,0,1,-1750.14,-6.04254)">
        <g id="Artboard34" transform="matrix(1,0,0,1,1750.14,6.04254)">
            <rect x="0" y="0" width="500" height="500" style="fill:none;"/>
            <g transform="matrix(4.92163,0,0,4.92163,-138.767,-731.487)">
                <path d="M78.499,200.155L78.545,200.156L78.591,200.156L78.637,200.157L78.682,200.158L78.728,200.16L78.774,200.162L78.819,200.164L78.865,200.166L78.911,200.169L78.957,200.172L79.002,200.175L79.048,200.178L79.093,200.182L79.139,200.186L79.185,200.19L79.23,200.194L79.276,200.199L79.321,200.204L79.367,200.21L79.412,200.215L79.458,200.221L79.503,200.227L79.549,200.234L79.594,200.24L79.639,200.247L79.685,200.254L79.73,200.262L79.775,200.27L79.82,200.278L79.865,200.286L79.911,200.295L79.956,200.304L80.001,200.313L80.046,200.322L80.091,200.332L80.135,200.342L80.18,200.352L80.225,200.362L80.27,200.373L80.314,200.384L80.359,200.396L80.404,200.407L80.448,200.419L80.493,200.431L80.537,200.444L80.581,200.456L80.626,200.469L80.67,200.482L80.714,200.496L80.758,200.51L80.802,200.524L80.846,200.538L80.89,200.553L80.934,200.568L80.977,200.583L81.021,200.598L81.065,200.614L81.108,200.63L81.152,200.646L81.195,200.662L81.238,200.679L81.282,200.696L81.325,200.714L81.368,200.731L81.411,200.749L81.453,200.767L81.496,200.786L81.539,200.804L81.581,200.823L81.624,200.843L81.666,200.862L81.709,200.882L81.751,200.902L81.793,200.922L81.835,200.943L81.877,200.964L81.919,200.985L81.96,201.006L82.002,201.028L82.043,201.05L82.085,201.072L82.126,201.095L82.167,201.117L82.208,201.14L82.249,201.164L82.29,201.187L82.331,201.211L82.371,201.235L82.412,201.26L82.452,201.284L82.492,201.309L82.533,201.335L82.573,201.36L82.612,201.386L82.652,201.412L82.692,201.438L82.731,201.465L82.771,201.492L82.81,201.519L82.849,201.546L82.888,201.574L82.927,201.602L82.965,201.63L83.004,201.659L83.042,201.688L83.081,201.717L83.119,201.746L83.157,201.775L83.194,201.805L83.232,201.835L83.27,201.866L83.307,201.896L83.344,201.927L83.381,201.959L83.418,201.99L83.455,202.022L83.492,202.054L83.528,202.086L83.565,202.119L83.601,202.152L83.637,202.185L83.672,202.218L83.708,202.252L83.744,202.286L83.779,202.32L83.814,202.354L83.852,202.392L91.724,210.765L91.755,210.796L91.789,210.831L91.823,210.866L91.857,210.901L91.89,210.937L91.924,210.972L91.957,211.008L91.989,211.043L92.022,211.079L92.054,211.115L92.086,211.151L92.118,211.187L92.149,211.223L92.18,211.26L92.211,211.296L92.242,211.333L92.272,211.369L92.302,211.406L92.332,211.443L92.361,211.48L92.391,211.517L92.42,211.555L92.448,211.592L92.477,211.629L92.505,211.667L92.533,211.705L92.56,211.742L92.588,211.78L92.615,211.818L92.642,211.856L92.668,211.894L92.695,211.933L92.721,211.971L92.746,212.009L92.772,212.048L92.797,212.087L92.822,212.125L92.847,212.164L92.871,212.203L92.895,212.242L92.919,212.281L92.943,212.32L92.966,212.359L92.989,212.399L93.012,212.438L93.034,212.478L93.057,212.517L93.079,212.557L93.1,212.597L93.122,212.636L93.143,212.676L93.164,212.716L93.185,212.757L93.205,212.797L93.225,212.837L93.245,212.877L93.264,212.917L93.284,212.958L93.303,212.999L93.321,213.039L93.34,213.08L93.358,213.12L93.376,213.161L93.393,213.202L93.411,213.243L93.428,213.284L93.445,213.325L93.461,213.366L93.478,213.407L93.494,213.448L93.509,213.489L93.525,213.531L93.54,213.572L93.555,213.614L93.569,213.655L93.584,213.697L93.598,213.738L93.612,213.78L93.625,213.822L93.639,213.863L93.652,213.905L93.664,213.947L93.677,213.989L93.689,214.031L93.701,214.073L93.713,214.115L93.724,214.157L93.735,214.199L93.746,214.241L93.756,214.284L93.767,214.326L93.777,214.368L93.786,214.41L93.796,214.453L93.805,214.495L93.814,214.537L93.823,214.58L93.831,214.622L93.839,214.665L93.847,214.707L93.854,214.75L93.862,214.792L93.869,214.835L93.875,214.878L93.882,214.92L93.888,214.963L93.894,215.006L93.899,215.049L93.905,215.091L93.91,215.134L93.915,215.177L93.919,215.22L93.923,215.263L93.927,215.305L93.931,215.348L93.935,215.391L93.938,215.434L93.941,215.477L93.943,215.52L93.946,215.563L93.948,215.606L93.949,215.648L93.951,215.691L93.952,215.734L93.953,215.777L93.954,215.82L93.954,215.863L93.954,215.906L93.954,215.949L93.954,215.992L93.953,216.035L93.952,216.078L93.951,216.121L93.949,216.164L93.948,216.207L93.946,216.25L93.943,216.293L93.941,216.335L93.938,216.378L93.935,216.421L93.931,216.464L93.927,216.507L93.923,216.55L93.919,216.593L93.915,216.635L93.91,216.678L93.905,216.721L93.899,216.764L93.894,216.807L93.888,216.849L93.882,216.892L93.875,216.934L93.869,216.977L93.862,217.02L93.854,217.063L93.847,217.105L93.839,217.147L93.831,217.19L93.823,217.233L93.814,217.275L93.805,217.317L93.796,217.36L93.786,217.402L93.777,217.444L93.767,217.487L93.756,217.529L93.746,217.571L93.735,217.613L93.724,217.655L93.713,217.697L93.701,217.739L93.689,217.781L93.677,217.823L93.664,217.865L93.652,217.907L93.639,217.949L93.625,217.991L93.612,218.032L93.598,218.074L93.584,218.116L93.569,218.157L93.555,218.198L93.54,218.24L93.525,218.281L93.509,218.323L93.494,218.364L93.478,218.405L93.461,218.446L93.445,218.487L93.428,218.528L93.411,218.569L93.393,218.61L93.376,218.651L93.358,218.692L93.34,218.733L93.321,218.773L93.303,218.814L93.284,218.854L93.264,218.895L93.245,218.935L93.225,218.975L93.205,219.015L93.184,219.056L93.164,219.096L93.143,219.136L93.122,219.176L93.1,219.215L93.079,219.255L93.057,219.295L93.034,219.334L93.012,219.374L92.989,219.413L92.966,219.453L92.943,219.492L92.919,219.531L92.895,219.57L92.871,219.609L92.847,219.648L92.822,219.687L92.797,219.725L92.772,219.764L92.746,219.803L92.721,219.841L92.695,219.879L92.668,219.918L92.642,219.956L92.615,219.994L92.588,220.032L92.56,220.07L92.533,220.107L92.505,220.145L92.477,220.183L92.448,220.22L92.42,220.257L92.391,220.295L92.361,220.332L92.332,220.369L92.302,220.406L92.272,220.442L92.242,220.479L92.211,220.516L92.18,220.552L92.149,220.588L92.118,220.625L92.086,220.661L92.054,220.697L92.022,220.733L91.989,220.769L91.957,220.804L91.924,220.84L91.89,220.875L91.857,220.91L91.823,220.946L91.789,220.981L91.755,221.016L91.72,221.05L83.849,228.922L83.814,228.956L83.779,228.991L83.744,229.025L83.708,229.059L83.672,229.092L83.637,229.126L83.601,229.159L83.565,229.192L83.528,229.224L83.492,229.257L83.455,229.289L83.418,229.32L83.382,229.352L83.344,229.383L83.307,229.414L83.27,229.445L83.232,229.475L83.195,229.505L83.157,229.535L83.119,229.565L83.081,229.594L83.042,229.623L83.004,229.652L82.965,229.681L82.927,229.709L82.888,229.737L82.849,229.765L82.81,229.792L82.771,229.819L82.731,229.846L82.692,229.873L82.652,229.899L82.612,229.925L82.573,229.951L82.533,229.976L82.492,230.002L82.452,230.027L82.412,230.051L82.371,230.076L82.331,230.1L82.29,230.124L82.249,230.147L82.208,230.171L82.167,230.194L82.126,230.216L82.085,230.239L82.044,230.261L82.002,230.283L81.96,230.305L81.919,230.326L81.877,230.347L81.835,230.368L81.793,230.389L81.751,230.409L81.709,230.429L81.666,230.449L81.624,230.469L81.582,230.488L81.539,230.507L81.496,230.526L81.453,230.544L81.411,230.562L81.368,230.58L81.325,230.598L81.282,230.615L81.238,230.632L81.195,230.649L81.152,230.665L81.108,230.681L81.065,230.697L81.021,230.713L80.978,230.729L80.934,230.744L80.89,230.759L80.846,230.773L80.802,230.787L80.758,230.802L80.714,230.815L80.67,230.829L80.626,230.842L80.581,230.855L80.537,230.868L80.493,230.88L80.448,230.892L80.404,230.904L80.359,230.916L80.314,230.927L80.27,230.938L80.225,230.949L80.18,230.959L80.135,230.97L80.091,230.98L80.046,230.989L80.001,230.999L79.956,231.008L79.911,231.017L79.865,231.025L79.82,231.034L79.775,231.042L79.73,231.049L79.685,231.057L79.639,231.064L79.594,231.071L79.549,231.078L79.503,231.084L79.458,231.09L79.412,231.096L79.367,231.102L79.321,231.107L79.276,231.112L79.23,231.117L79.185,231.121L79.139,231.126L79.093,231.13L79.048,231.133L79.002,231.137L78.957,231.14L78.911,231.143L78.865,231.145L78.819,231.148L78.774,231.15L78.728,231.151L78.682,231.153L78.637,231.154L78.591,231.155L78.545,231.156L78.499,231.156L78.454,231.156L78.408,231.156L78.362,231.156L78.316,231.155L78.27,231.154L78.225,231.153L78.179,231.151L78.133,231.15L78.088,231.148L78.042,231.145L77.996,231.143L77.95,231.14L77.905,231.137L77.859,231.133L77.814,231.13L77.768,231.126L77.722,231.121L77.677,231.117L77.631,231.112L77.586,231.107L77.54,231.102L77.495,231.096L77.449,231.09L77.404,231.084L77.358,231.078L77.313,231.071L77.268,231.064L77.222,231.057L77.177,231.049L77.132,231.042L77.087,231.034L77.042,231.025L76.996,231.017L76.951,231.008L76.906,230.999L76.861,230.989L76.816,230.98L76.772,230.97L76.727,230.959L76.682,230.949L76.637,230.938L76.593,230.927L76.548,230.916L76.503,230.904L76.459,230.892L76.414,230.88L76.37,230.868L76.326,230.855L76.281,230.842L76.237,230.829L76.193,230.815L76.149,230.802L76.105,230.787L76.061,230.773L76.017,230.759L75.973,230.744L75.929,230.729L75.886,230.713L75.842,230.697L75.799,230.681L75.755,230.665L75.712,230.649L75.669,230.632L75.625,230.615L75.582,230.598L75.539,230.58L75.496,230.562L75.454,230.544L75.411,230.526L75.368,230.507L75.326,230.488L75.283,230.469L75.241,230.449L75.198,230.429L75.156,230.409L75.114,230.389L75.072,230.368L75.03,230.347L74.988,230.326L74.947,230.305L74.905,230.283L74.864,230.261L74.822,230.239L74.781,230.216L74.74,230.194L74.699,230.171L74.658,230.147L74.617,230.124L74.576,230.1L74.536,230.076L74.495,230.051L74.455,230.027L74.415,230.002L74.374,229.976L74.334,229.951L74.295,229.925L74.255,229.899L74.215,229.873L74.176,229.846L74.136,229.819L74.097,229.792L74.058,229.765L74.019,229.737L73.98,229.709L73.942,229.681L73.903,229.652L73.865,229.623L73.826,229.594L73.788,229.565L73.75,229.535L73.712,229.505L73.675,229.475L73.637,229.445L73.6,229.414L73.563,229.383L73.526,229.352L73.489,229.321L73.452,229.289L73.415,229.257L73.379,229.224L73.342,229.192L73.306,229.159L73.27,229.126L73.235,229.092L73.199,229.059L73.163,229.025L73.128,228.991L73.093,228.956L73.058,228.922L65.188,221.05L65.12,220.982L65.053,220.914L64.987,220.846L64.92,220.778L64.855,220.71L64.79,220.642L64.726,220.573L64.662,220.505L64.599,220.437L64.536,220.368L64.474,220.3L64.413,220.231L64.352,220.163L64.292,220.094L64.233,220.025L64.174,219.957L64.116,219.888L64.059,219.819L64.002,219.75L63.946,219.681L63.891,219.612L63.836,219.543L63.782,219.474L63.729,219.404L63.677,219.335L63.65,219.301L63.625,219.266L63.599,219.231L63.574,219.196L63.548,219.162L63.523,219.127L63.499,219.092L63.474,219.058L63.449,219.023L63.425,218.988L63.401,218.953L63.377,218.918L63.353,218.883L63.33,218.849L63.307,218.814L63.283,218.779L63.261,218.744L63.238,218.709L63.215,218.674L63.193,218.639L63.171,218.604L63.149,218.569L63.127,218.534L63.106,218.499L63.085,218.464L63.064,218.429L63.043,218.394L63.022,218.359L63.002,218.324L62.981,218.288L62.961,218.253L62.942,218.218L62.922,218.183L62.903,218.148L62.884,218.113L62.865,218.077L62.846,218.042L62.828,218.007L62.809,217.971L62.791,217.936L62.773,217.901L62.756,217.865L62.739,217.83L62.721,217.795L62.705,217.759L62.688,217.724L62.671,217.688L62.655,217.653L62.639,217.617L62.624,217.582L62.608,217.546L62.593,217.511L62.578,217.475L62.563,217.439L62.549,217.404L62.534,217.368L62.52,217.332L62.507,217.297L62.493,217.261L62.48,217.225L62.467,217.19L62.454,217.154L62.442,217.118L62.429,217.082L62.417,217.046L62.406,217.01L62.394,216.975L62.383,216.939L62.372,216.903L62.361,216.867L62.351,216.831L62.341,216.795L62.331,216.759L62.321,216.723L62.312,216.687L62.302,216.651L62.294,216.615L62.285,216.579L62.277,216.543L62.269,216.506L62.261,216.47L62.254,216.434L62.246,216.398L62.239,216.362L62.233,216.326L62.226,216.289L62.22,216.253L62.215,216.217L62.209,216.18L62.204,216.144L62.199,216.108L62.195,216.071L62.19,216.035L62.186,215.999L62.183,215.962L62.179,215.926L62.176,215.89L62.173,215.853L62.171,215.817L62.168,215.78L62.166,215.744L62.165,215.707L62.164,215.671L62.163,215.634L62.162,215.598L62.161,215.561L62.161,215.525L62.162,215.488L62.162,215.452L62.163,215.415L62.164,215.379L62.166,215.342L62.168,215.306L62.17,215.269L62.172,215.233L62.175,215.196L62.178,215.159L62.182,215.123L62.185,215.086L62.189,215.05L62.194,215.013L62.199,214.977L62.204,214.94L62.209,214.904L62.215,214.867L62.221,214.83L62.227,214.794L62.234,214.757L62.241,214.721L62.248,214.684L62.256,214.648L62.264,214.611L62.272,214.575L62.281,214.538L62.29,214.502L62.3,214.465L62.309,214.429L62.32,214.393L62.33,214.356L62.341,214.32L62.352,214.283L62.363,214.247L62.375,214.211L62.387,214.174L62.4,214.138L62.413,214.102L62.426,214.065L62.439,214.029L62.453,213.993L62.467,213.957L62.482,213.921L62.497,213.884L62.512,213.848L62.528,213.812L62.544,213.776L62.56,213.74L62.577,213.704L62.594,213.668L62.611,213.632L62.629,213.596L62.647,213.56L62.665,213.524L62.684,213.488L62.703,213.452L62.723,213.416L62.743,213.38L62.763,213.344L62.784,213.309L62.805,213.273L62.826,213.237L62.847,213.201L62.87,213.166L62.892,213.13L62.915,213.094L62.938,213.059L62.961,213.023L62.985,212.988L63.009,212.952L63.034,212.917L63.059,212.881L63.084,212.846L63.11,212.81L63.136,212.775L63.162,212.739L63.189,212.704L63.216,212.669L63.243,212.633L63.271,212.598L63.299,212.563L63.328,212.528L63.357,212.492L63.386,212.457L63.416,212.422L63.446,212.387L63.476,212.352L63.507,212.317L63.538,212.282L63.57,212.247L63.602,212.212L63.634,212.177L63.667,212.142L63.7,212.107L63.734,212.072L63.767,212.037L63.802,212.003L63.834,211.97L73.056,202.391L73.093,202.354L73.128,202.32L73.163,202.286L73.199,202.252L73.235,202.218L73.27,202.185L73.306,202.152L73.343,202.119L73.379,202.086L73.415,202.054L73.452,202.022L73.489,201.99L73.526,201.959L73.563,201.927L73.6,201.897L73.637,201.866L73.675,201.835L73.713,201.805L73.75,201.775L73.788,201.746L73.826,201.717L73.865,201.688L73.903,201.659L73.942,201.63L73.98,201.602L74.019,201.574L74.058,201.546L74.097,201.519L74.136,201.492L74.176,201.465L74.215,201.438L74.255,201.412L74.295,201.386L74.334,201.36L74.374,201.335L74.415,201.309L74.455,201.284L74.495,201.26L74.536,201.235L74.576,201.211L74.617,201.187L74.658,201.164L74.699,201.14L74.74,201.117L74.781,201.095L74.822,201.072L74.864,201.05L74.905,201.028L74.947,201.006L74.988,200.985L75.03,200.964L75.072,200.943L75.114,200.922L75.156,200.902L75.198,200.882L75.241,200.862L75.283,200.843L75.326,200.823L75.368,200.804L75.411,200.786L75.454,200.767L75.496,200.749L75.539,200.731L75.582,200.714L75.625,200.696L75.669,200.679L75.712,200.662L75.755,200.646L75.799,200.63L75.842,200.614L75.886,200.598L75.93,200.583L75.973,200.568L76.017,200.553L76.061,200.538L76.105,200.524L76.149,200.51L76.193,200.496L76.237,200.482L76.281,200.469L76.326,200.456L76.37,200.444L76.414,200.431L76.459,200.419L76.503,200.407L76.548,200.396L76.593,200.384L76.637,200.373L76.682,200.362L76.727,200.352L76.772,200.342L76.816,200.332L76.861,200.322L76.906,200.313L76.951,200.304L76.996,200.295L77.042,200.286L77.087,200.278L77.132,200.27L77.177,200.262L77.222,200.254L77.268,200.247L77.313,200.24L77.358,200.234L77.404,200.227L77.449,200.221L77.495,200.215L77.54,200.21L77.586,200.204L77.631,200.199L77.677,200.194L77.722,200.19L77.768,200.186L77.814,200.182L77.859,200.178L77.905,200.175L77.95,200.172L77.996,200.169L78.042,200.166L78.088,200.164L78.133,200.162L78.179,200.16L78.225,200.158L78.27,200.157L78.316,200.156L78.362,200.156L78.408,200.155L78.454,200.155L78.499,200.155ZM78.411,200.765L78.369,200.765L78.327,200.766L78.285,200.767L78.243,200.768L78.201,200.769L78.159,200.771L78.117,200.773L78.075,200.775L78.032,200.777L77.99,200.78L77.948,200.783L77.906,200.786L77.864,200.789L77.822,200.793L77.78,200.797L77.738,200.801L77.696,200.805L77.655,200.81L77.613,200.815L77.571,200.82L77.529,200.825L77.487,200.831L77.445,200.837L77.404,200.843L77.362,200.849L77.32,200.856L77.279,200.863L77.237,200.87L77.195,200.878L77.154,200.885L77.112,200.893L77.071,200.901L77.029,200.91L76.988,200.918L76.947,200.927L76.905,200.936L76.864,200.946L76.823,200.955L76.782,200.965L76.741,200.976L76.7,200.986L76.659,200.997L76.618,201.008L76.577,201.019L76.536,201.03L76.495,201.042L76.454,201.054L76.414,201.066L76.373,201.078L76.332,201.091L76.292,201.104L76.252,201.117L76.211,201.13L76.171,201.144L76.131,201.158L76.091,201.172L76.05,201.187L76.01,201.201L75.97,201.216L75.931,201.231L75.891,201.247L75.851,201.263L75.811,201.278L75.772,201.295L75.732,201.311L75.693,201.328L75.654,201.345L75.614,201.362L75.575,201.379L75.536,201.397L75.497,201.415L75.458,201.433L75.419,201.452L75.381,201.47L75.342,201.489L75.304,201.508L75.265,201.528L75.227,201.548L75.189,201.568L75.15,201.588L75.112,201.608L75.074,201.629L75.037,201.65L74.999,201.671L74.961,201.692L74.924,201.714L74.886,201.736L74.849,201.758L74.812,201.781L74.774,201.803L74.737,201.826L74.701,201.85L74.664,201.873L74.627,201.897L74.591,201.921L74.554,201.945L74.518,201.969L74.482,201.994L74.446,202.019L74.41,202.044L74.374,202.07L74.338,202.095L74.303,202.121L74.267,202.148L74.232,202.174L74.197,202.201L74.161,202.228L74.127,202.255L74.092,202.283L74.057,202.31L74.022,202.338L73.988,202.367L73.954,202.395L73.92,202.424L73.886,202.453L73.852,202.482L73.818,202.511L73.785,202.541L73.751,202.571L73.718,202.601L73.685,202.632L73.652,202.663L73.619,202.694L73.586,202.725L73.554,202.757L73.521,202.788L73.491,202.819L64.27,212.396L64.235,212.431L64.203,212.463L64.172,212.496L64.141,212.528L64.111,212.56L64.081,212.592L64.051,212.624L64.021,212.657L63.992,212.689L63.964,212.721L63.936,212.753L63.908,212.785L63.88,212.817L63.853,212.849L63.826,212.881L63.8,212.913L63.774,212.945L63.748,212.977L63.723,213.009L63.698,213.041L63.674,213.073L63.649,213.105L63.626,213.137L63.602,213.169L63.579,213.201L63.556,213.233L63.534,213.265L63.512,213.297L63.49,213.329L63.469,213.361L63.448,213.392L63.427,213.424L63.407,213.456L63.387,213.488L63.368,213.519L63.348,213.551L63.329,213.583L63.311,213.614L63.293,213.646L63.275,213.678L63.257,213.709L63.24,213.741L63.223,213.773L63.207,213.804L63.19,213.836L63.175,213.867L63.159,213.899L63.144,213.93L63.129,213.962L63.114,213.993L63.1,214.025L63.086,214.056L63.073,214.088L63.059,214.119L63.046,214.151L63.034,214.182L63.021,214.213L63.009,214.245L62.998,214.276L62.986,214.308L62.975,214.339L62.965,214.37L62.954,214.401L62.944,214.433L62.934,214.464L62.924,214.495L62.915,214.527L62.906,214.558L62.898,214.589L62.889,214.62L62.881,214.652L62.873,214.683L62.866,214.714L62.859,214.745L62.852,214.777L62.845,214.808L62.839,214.839L62.833,214.87L62.827,214.902L62.822,214.933L62.816,214.964L62.812,214.995L62.807,215.026L62.803,215.058L62.799,215.089L62.795,215.12L62.791,215.151L62.788,215.182L62.785,215.214L62.783,215.245L62.78,215.276L62.778,215.307L62.776,215.339L62.775,215.37L62.773,215.401L62.772,215.432L62.772,215.464L62.771,215.495L62.771,215.526L62.771,215.558L62.771,215.589L62.772,215.62L62.773,215.652L62.774,215.683L62.775,215.714L62.777,215.746L62.779,215.777L62.781,215.809L62.783,215.84L62.786,215.871L62.789,215.903L62.792,215.934L62.796,215.966L62.8,215.997L62.804,216.029L62.808,216.06L62.812,216.092L62.817,216.124L62.822,216.155L62.827,216.187L62.833,216.218L62.839,216.25L62.845,216.282L62.851,216.313L62.858,216.345L62.864,216.377L62.871,216.408L62.879,216.44L62.886,216.472L62.894,216.504L62.902,216.535L62.91,216.567L62.919,216.599L62.928,216.631L62.937,216.663L62.946,216.695L62.955,216.727L62.965,216.759L62.975,216.791L62.985,216.823L62.996,216.855L63.007,216.887L63.018,216.919L63.029,216.951L63.04,216.983L63.052,217.015L63.064,217.047L63.076,217.079L63.088,217.111L63.101,217.143L63.114,217.176L63.127,217.208L63.14,217.24L63.154,217.272L63.168,217.305L63.182,217.337L63.196,217.369L63.211,217.401L63.225,217.434L63.24,217.466L63.256,217.498L63.271,217.531L63.287,217.563L63.303,217.596L63.319,217.628L63.335,217.661L63.352,217.693L63.368,217.725L63.385,217.758L63.403,217.79L63.42,217.823L63.438,217.856L63.456,217.888L63.474,217.921L63.492,217.953L63.511,217.986L63.529,218.018L63.548,218.051L63.567,218.084L63.587,218.116L63.606,218.149L63.626,218.182L63.646,218.214L63.667,218.247L63.687,218.28L63.708,218.312L63.729,218.345L63.75,218.378L63.771,218.411L63.792,218.443L63.814,218.476L63.836,218.509L63.858,218.542L63.88,218.575L63.903,218.607L63.926,218.64L63.949,218.673L63.972,218.706L63.995,218.739L64.018,218.771L64.042,218.804L64.066,218.837L64.09,218.87L64.114,218.903L64.139,218.936L64.163,218.969L64.213,219.035L64.264,219.1L64.315,219.166L64.368,219.232L64.42,219.298L64.474,219.364L64.528,219.43L64.583,219.496L64.639,219.562L64.695,219.628L64.752,219.694L64.81,219.76L64.869,219.826L64.928,219.892L64.987,219.958L65.048,220.024L65.109,220.09L65.17,220.157L65.233,220.223L65.296,220.289L65.359,220.355L65.423,220.421L65.488,220.487L65.553,220.553L65.619,220.62L73.489,228.49L73.521,228.522L73.554,228.554L73.586,228.586L73.619,228.617L73.652,228.648L73.685,228.679L73.718,228.709L73.751,228.739L73.785,228.77L73.818,228.799L73.852,228.829L73.886,228.858L73.92,228.887L73.954,228.916L73.988,228.944L74.023,228.973L74.057,229.001L74.092,229.028L74.127,229.056L74.161,229.083L74.197,229.11L74.232,229.137L74.267,229.163L74.303,229.189L74.338,229.215L74.374,229.241L74.41,229.267L74.446,229.292L74.482,229.317L74.518,229.342L74.554,229.366L74.591,229.39L74.627,229.414L74.664,229.438L74.701,229.461L74.738,229.485L74.775,229.508L74.812,229.53L74.849,229.553L74.886,229.575L74.924,229.597L74.961,229.619L74.999,229.64L75.037,229.661L75.074,229.682L75.112,229.703L75.15,229.723L75.189,229.744L75.227,229.764L75.265,229.783L75.304,229.803L75.342,229.822L75.381,229.841L75.419,229.86L75.458,229.878L75.497,229.896L75.536,229.914L75.575,229.932L75.614,229.949L75.654,229.966L75.693,229.983L75.732,230L75.772,230.016L75.811,230.033L75.851,230.049L75.891,230.064L75.931,230.08L75.97,230.095L76.01,230.11L76.05,230.125L76.091,230.139L76.131,230.153L76.171,230.167L76.211,230.181L76.252,230.194L76.292,230.207L76.333,230.22L76.373,230.233L76.414,230.245L76.454,230.258L76.495,230.269L76.536,230.281L76.577,230.293L76.618,230.304L76.659,230.315L76.7,230.325L76.741,230.336L76.782,230.346L76.823,230.356L76.864,230.366L76.905,230.375L76.947,230.384L76.988,230.393L77.029,230.402L77.071,230.41L77.112,230.418L77.154,230.426L77.195,230.434L77.237,230.441L77.279,230.448L77.32,230.455L77.362,230.462L77.404,230.468L77.445,230.474L77.487,230.48L77.529,230.486L77.571,230.491L77.613,230.497L77.655,230.501L77.696,230.506L77.738,230.51L77.78,230.515L77.822,230.519L77.864,230.522L77.906,230.526L77.948,230.529L77.99,230.532L78.032,230.534L78.075,230.537L78.117,230.539L78.159,230.541L78.201,230.542L78.243,230.544L78.285,230.545L78.327,230.546L78.369,230.546L78.411,230.547L78.454,230.547L78.496,230.547L78.538,230.546L78.58,230.546L78.622,230.545L78.664,230.544L78.706,230.542L78.748,230.541L78.79,230.539L78.832,230.537L78.875,230.534L78.917,230.532L78.959,230.529L79.001,230.526L79.043,230.522L79.085,230.519L79.127,230.515L79.169,230.51L79.211,230.506L79.252,230.501L79.294,230.497L79.336,230.491L79.378,230.486L79.42,230.48L79.462,230.474L79.503,230.468L79.545,230.462L79.587,230.455L79.628,230.448L79.67,230.441L79.712,230.434L79.753,230.426L79.795,230.418L79.836,230.41L79.878,230.402L79.919,230.393L79.96,230.384L80.002,230.375L80.043,230.366L80.084,230.356L80.125,230.346L80.166,230.336L80.207,230.325L80.248,230.315L80.289,230.304L80.33,230.293L80.371,230.281L80.412,230.269L80.453,230.258L80.493,230.245L80.534,230.233L80.575,230.22L80.615,230.207L80.655,230.194L80.696,230.181L80.736,230.167L80.776,230.153L80.816,230.139L80.857,230.125L80.897,230.11L80.937,230.095L80.976,230.08L81.016,230.064L81.056,230.049L81.096,230.033L81.135,230.016L81.175,230L81.214,229.983L81.253,229.966L81.293,229.949L81.332,229.932L81.371,229.914L81.41,229.896L81.449,229.878L81.487,229.86L81.526,229.841L81.565,229.822L81.603,229.803L81.642,229.783L81.68,229.764L81.718,229.744L81.757,229.723L81.795,229.703L81.833,229.682L81.87,229.661L81.908,229.64L81.946,229.619L81.983,229.597L82.021,229.575L82.058,229.553L82.095,229.53L82.132,229.508L82.169,229.485L82.206,229.461L82.243,229.438L82.28,229.414L82.316,229.39L82.353,229.366L82.389,229.342L82.425,229.317L82.461,229.292L82.497,229.267L82.533,229.241L82.569,229.215L82.604,229.189L82.64,229.163L82.675,229.137L82.71,229.11L82.746,229.083L82.78,229.056L82.815,229.028L82.85,229.001L82.884,228.973L82.919,228.944L82.953,228.916L82.987,228.887L83.021,228.858L83.055,228.829L83.089,228.799L83.122,228.77L83.156,228.74L83.189,228.709L83.222,228.679L83.255,228.648L83.288,228.617L83.321,228.586L83.353,228.554L83.386,228.522L83.418,228.49L91.289,220.62L91.321,220.587L91.353,220.554L91.385,220.522L91.416,220.489L91.447,220.456L91.478,220.424L91.509,220.391L91.539,220.358L91.569,220.324L91.599,220.291L91.629,220.258L91.658,220.224L91.687,220.191L91.716,220.157L91.745,220.123L91.773,220.089L91.801,220.055L91.829,220.021L91.856,219.987L91.884,219.953L91.911,219.919L91.937,219.884L91.964,219.85L91.99,219.815L92.016,219.78L92.042,219.746L92.068,219.711L92.093,219.676L92.118,219.641L92.143,219.606L92.167,219.571L92.191,219.535L92.215,219.5L92.239,219.465L92.262,219.429L92.286,219.394L92.309,219.358L92.331,219.322L92.354,219.287L92.376,219.251L92.398,219.215L92.42,219.179L92.441,219.143L92.462,219.107L92.483,219.07L92.504,219.034L92.524,218.998L92.545,218.961L92.564,218.925L92.584,218.888L92.604,218.852L92.623,218.815L92.642,218.778L92.66,218.741L92.679,218.705L92.697,218.668L92.715,218.631L92.732,218.594L92.75,218.557L92.767,218.519L92.784,218.482L92.801,218.445L92.817,218.408L92.833,218.37L92.849,218.333L92.865,218.295L92.88,218.258L92.895,218.22L92.91,218.183L92.925,218.145L92.939,218.107L92.953,218.07L92.967,218.032L92.981,217.994L92.994,217.956L93.007,217.918L93.02,217.88L93.033,217.842L93.045,217.804L93.057,217.766L93.069,217.728L93.081,217.689L93.092,217.651L93.103,217.613L93.114,217.575L93.125,217.537L93.135,217.498L93.145,217.46L93.155,217.421L93.165,217.383L93.174,217.344L93.183,217.306L93.192,217.267L93.201,217.229L93.209,217.19L93.217,217.151L93.225,217.113L93.232,217.074L93.24,217.036L93.247,216.997L93.254,216.958L93.26,216.919L93.267,216.881L93.273,216.842L93.279,216.803L93.284,216.764L93.29,216.725L93.295,216.686L93.3,216.647L93.304,216.608L93.309,216.569L93.313,216.53L93.317,216.492L93.32,216.452L93.324,216.414L93.327,216.375L93.33,216.336L93.332,216.297L93.335,216.258L93.337,216.219L93.339,216.18L93.34,216.14L93.342,216.101L93.343,216.062L93.344,216.023L93.344,215.984L93.345,215.945L93.345,215.906L93.345,215.867L93.344,215.828L93.344,215.789L93.343,215.75L93.342,215.711L93.34,215.672L93.339,215.633L93.337,215.594L93.335,215.555L93.332,215.516L93.33,215.477L93.327,215.438L93.324,215.399L93.32,215.36L93.317,215.321L93.313,215.282L93.309,215.243L93.304,215.204L93.3,215.165L93.295,215.126L93.29,215.087L93.284,215.048L93.279,215.01L93.273,214.971L93.267,214.932L93.26,214.893L93.254,214.854L93.247,214.816L93.24,214.777L93.232,214.738L93.225,214.7L93.217,214.661L93.209,214.622L93.201,214.584L93.192,214.545L93.183,214.506L93.174,214.468L93.165,214.429L93.155,214.391L93.145,214.353L93.135,214.314L93.125,214.276L93.114,214.237L93.103,214.199L93.092,214.161L93.081,214.123L93.069,214.084L93.057,214.046L93.045,214.008L93.033,213.97L93.02,213.932L93.007,213.894L92.994,213.856L92.981,213.818L92.967,213.78L92.953,213.743L92.939,213.705L92.925,213.667L92.91,213.629L92.895,213.592L92.88,213.554L92.865,213.517L92.849,213.479L92.833,213.442L92.817,213.405L92.801,213.367L92.784,213.33L92.767,213.293L92.75,213.255L92.732,213.218L92.715,213.181L92.697,213.144L92.679,213.108L92.66,213.071L92.642,213.034L92.623,212.997L92.604,212.96L92.584,212.924L92.564,212.887L92.544,212.851L92.524,212.814L92.504,212.778L92.483,212.742L92.462,212.705L92.441,212.669L92.42,212.633L92.398,212.597L92.376,212.561L92.354,212.525L92.331,212.49L92.309,212.454L92.286,212.418L92.262,212.383L92.239,212.347L92.215,212.312L92.191,212.276L92.167,212.241L92.143,212.206L92.118,212.171L92.093,212.136L92.067,212.101L92.042,212.066L92.016,212.031L91.99,211.997L91.964,211.962L91.937,211.928L91.911,211.893L91.884,211.859L91.856,211.825L91.829,211.79L91.801,211.756L91.773,211.722L91.745,211.688L91.716,211.655L91.687,211.621L91.658,211.587L91.629,211.554L91.599,211.521L91.569,211.487L91.539,211.454L91.509,211.421L91.478,211.388L91.447,211.355L91.416,211.322L91.385,211.29L91.353,211.257L91.321,211.225L91.285,211.189L83.415,202.817L83.386,202.788L83.353,202.757L83.321,202.725L83.288,202.694L83.255,202.663L83.222,202.632L83.189,202.602L83.156,202.571L83.122,202.541L83.089,202.512L83.055,202.482L83.021,202.453L82.987,202.424L82.953,202.395L82.919,202.367L82.884,202.338L82.85,202.31L82.815,202.283L82.781,202.255L82.746,202.228L82.71,202.201L82.675,202.174L82.64,202.148L82.604,202.121L82.569,202.095L82.533,202.07L82.497,202.044L82.461,202.019L82.425,201.994L82.389,201.969L82.353,201.945L82.316,201.921L82.28,201.897L82.243,201.873L82.206,201.85L82.17,201.826L82.133,201.803L82.095,201.781L82.058,201.758L82.021,201.736L81.983,201.714L81.946,201.692L81.908,201.671L81.87,201.65L81.833,201.629L81.795,201.608L81.757,201.588L81.718,201.568L81.68,201.548L81.642,201.528L81.603,201.508L81.565,201.489L81.526,201.47L81.487,201.452L81.449,201.433L81.41,201.415L81.371,201.397L81.332,201.379L81.293,201.362L81.253,201.345L81.214,201.328L81.175,201.311L81.135,201.295L81.096,201.278L81.056,201.263L81.016,201.247L80.976,201.231L80.937,201.216L80.897,201.201L80.857,201.187L80.816,201.172L80.776,201.158L80.736,201.144L80.696,201.13L80.655,201.117L80.615,201.104L80.575,201.091L80.534,201.078L80.493,201.066L80.453,201.054L80.412,201.042L80.371,201.03L80.33,201.019L80.289,201.008L80.248,200.997L80.207,200.986L80.166,200.976L80.125,200.965L80.084,200.955L80.043,200.946L80.002,200.936L79.96,200.927L79.919,200.918L79.878,200.91L79.836,200.901L79.795,200.893L79.753,200.885L79.712,200.878L79.67,200.87L79.628,200.863L79.587,200.856L79.545,200.849L79.503,200.843L79.462,200.837L79.42,200.831L79.378,200.825L79.336,200.82L79.294,200.815L79.252,200.81L79.211,200.805L79.169,200.801L79.127,200.797L79.085,200.793L79.043,200.789L79.001,200.786L78.959,200.783L78.917,200.78L78.875,200.777L78.832,200.775L78.79,200.773L78.748,200.771L78.706,200.769L78.664,200.768L78.622,200.767L78.58,200.766L78.538,200.765L78.496,200.765L78.454,200.765L78.411,200.765Z" style="fill:rgb(30,30,30);"/>
            </g>
            <g transform="matrix(4.92163,0,0,4.92163,-138.767,-731.487)">
                <path d="M78.499,168.844L78.545,168.845L78.591,168.845L78.637,168.846L78.682,168.847L78.728,168.849L78.774,168.851L78.819,168.853L78.865,168.855L78.911,168.858L78.957,168.861L79.002,168.864L79.048,168.867L79.093,168.871L79.139,168.875L79.185,168.879L79.23,168.883L79.276,168.888L79.321,168.893L79.367,168.899L79.412,168.904L79.458,168.91L79.503,168.916L79.549,168.923L79.594,168.929L79.639,168.936L79.685,168.943L79.73,168.951L79.775,168.959L79.82,168.967L79.865,168.975L79.911,168.984L79.956,168.993L80.001,169.002L80.046,169.011L80.091,169.021L80.135,169.031L80.18,169.041L80.225,169.051L80.27,169.062L80.314,169.073L80.359,169.085L80.404,169.096L80.448,169.108L80.493,169.12L80.537,169.133L80.581,169.145L80.626,169.158L80.67,169.171L80.714,169.185L80.758,169.199L80.802,169.213L80.846,169.227L80.89,169.242L80.934,169.257L80.977,169.272L81.021,169.287L81.065,169.303L81.108,169.319L81.152,169.335L81.195,169.351L81.238,169.368L81.282,169.385L81.325,169.403L81.368,169.42L81.411,169.438L81.453,169.456L81.496,169.475L81.539,169.493L81.581,169.512L81.624,169.532L81.666,169.551L81.709,169.571L81.751,169.591L81.793,169.611L81.835,169.632L81.877,169.653L81.919,169.674L81.96,169.695L82.002,169.717L82.043,169.739L82.085,169.761L82.126,169.784L82.167,169.806L82.208,169.829L82.249,169.853L82.29,169.876L82.331,169.9L82.371,169.924L82.412,169.949L82.452,169.973L82.492,169.998L82.533,170.024L82.573,170.049L82.612,170.075L82.652,170.101L82.692,170.127L82.731,170.154L82.771,170.181L82.81,170.208L82.849,170.235L82.888,170.263L82.927,170.291L82.965,170.319L83.004,170.348L83.042,170.377L83.081,170.406L83.119,170.435L83.157,170.464L83.194,170.494L83.232,170.524L83.27,170.555L83.307,170.586L83.344,170.616L83.381,170.648L83.418,170.679L83.455,170.711L83.492,170.743L83.528,170.775L83.564,170.808L83.601,170.841L83.637,170.874L83.672,170.907L83.708,170.941L83.744,170.975L83.779,171.009L83.814,171.043L83.849,171.078L98.51,185.741L98.545,185.775L98.579,185.81L98.613,185.846L98.647,185.881L98.681,185.917L98.715,185.953L98.748,185.989L98.78,186.025L98.813,186.061L98.845,186.098L98.877,186.134L98.909,186.171L98.941,186.208L98.972,186.245L99.003,186.282L99.034,186.32L99.064,186.357L99.094,186.395L99.124,186.433L99.154,186.471L99.183,186.509L99.212,186.547L99.241,186.585L99.269,186.624L99.298,186.663L99.326,186.701L99.353,186.74L99.381,186.779L99.408,186.819L99.435,186.858L99.461,186.897L99.488,186.937L99.514,186.977L99.539,187.017L99.565,187.057L99.59,187.097L99.615,187.137L99.64,187.177L99.664,187.218L99.688,187.258L99.712,187.299L99.736,187.34L99.759,187.381L99.782,187.422L99.805,187.463L99.828,187.504L99.85,187.546L99.872,187.587L99.894,187.629L99.915,187.671L99.936,187.712L99.957,187.754L99.978,187.796L99.998,187.838L100.018,187.881L100.038,187.923L100.057,187.965L100.077,188.008L100.096,188.05L100.114,188.093L100.133,188.136L100.151,188.179L100.169,188.222L100.186,188.265L100.204,188.308L100.221,188.351L100.237,188.394L100.254,188.438L100.27,188.481L100.286,188.525L100.302,188.568L100.317,188.612L100.332,188.656L100.347,188.699L100.362,188.743L100.376,188.787L100.39,188.831L100.404,188.875L100.417,188.919L100.431,188.964L100.444,189.008L100.456,189.052L100.469,189.097L100.481,189.141L100.493,189.186L100.504,189.23L100.516,189.275L100.527,189.32L100.538,189.364L100.548,189.409L100.558,189.454L100.568,189.499L100.578,189.544L100.587,189.589L100.596,189.634L100.605,189.679L100.614,189.724L100.622,189.769L100.63,189.814L100.638,189.859L100.646,189.905L100.653,189.95L100.66,189.995L100.666,190.041L100.673,190.086L100.679,190.131L100.685,190.177L100.69,190.222L100.696,190.268L100.701,190.313L100.706,190.359L100.71,190.405L100.714,190.45L100.718,190.496L100.722,190.541L100.725,190.587L100.729,190.633L100.731,190.678L100.734,190.724L100.736,190.77L100.738,190.815L100.74,190.861L100.742,190.907L100.743,190.953L100.744,190.998L100.744,191.044L100.745,191.09L100.745,191.136L100.745,191.181L100.744,191.227L100.744,191.273L100.743,191.319L100.742,191.364L100.74,191.41L100.738,191.456L100.736,191.502L100.734,191.547L100.731,191.593L100.729,191.639L100.725,191.684L100.722,191.73L100.718,191.776L100.714,191.821L100.71,191.867L100.706,191.912L100.701,191.958L100.696,192.004L100.69,192.049L100.685,192.094L100.679,192.14L100.673,192.185L100.666,192.231L100.66,192.276L100.653,192.321L100.646,192.367L100.638,192.412L100.63,192.457L100.622,192.502L100.614,192.548L100.605,192.593L100.596,192.638L100.587,192.683L100.578,192.728L100.568,192.773L100.558,192.817L100.548,192.862L100.538,192.907L100.527,192.952L100.516,192.996L100.504,193.041L100.493,193.086L100.481,193.13L100.469,193.175L100.456,193.219L100.444,193.263L100.431,193.308L100.417,193.352L100.404,193.396L100.39,193.44L100.376,193.484L100.362,193.528L100.347,193.572L100.332,193.616L100.317,193.659L100.302,193.703L100.286,193.747L100.27,193.79L100.254,193.834L100.237,193.877L100.221,193.92L100.204,193.963L100.186,194.007L100.169,194.05L100.151,194.092L100.133,194.135L100.114,194.178L100.096,194.221L100.077,194.263L100.057,194.306L100.038,194.348L100.018,194.39L99.998,194.433L99.978,194.475L99.957,194.517L99.936,194.559L99.915,194.6L99.894,194.642L99.872,194.684L99.85,194.725L99.828,194.767L99.805,194.808L99.782,194.849L99.759,194.89L99.736,194.931L99.712,194.972L99.688,195.013L99.664,195.053L99.64,195.094L99.615,195.134L99.59,195.174L99.565,195.214L99.539,195.254L99.514,195.294L99.488,195.334L99.461,195.373L99.435,195.413L99.408,195.452L99.381,195.492L99.353,195.531L99.326,195.569L99.298,195.608L99.269,195.647L99.241,195.686L99.212,195.724L99.183,195.762L99.154,195.8L99.124,195.838L99.094,195.876L99.064,195.914L99.034,195.951L99.003,195.989L98.972,196.026L98.941,196.063L98.909,196.1L98.877,196.137L98.845,196.173L98.813,196.21L98.78,196.246L98.748,196.282L98.714,196.318L98.681,196.354L98.647,196.389L98.613,196.425L98.579,196.46L98.545,196.495L98.51,196.53L83.849,211.193L83.814,211.227L83.779,211.262L83.744,211.296L83.708,211.33L83.672,211.363L83.637,211.397L83.601,211.43L83.564,211.463L83.528,211.495L83.492,211.528L83.455,211.56L83.418,211.591L83.381,211.623L83.344,211.654L83.307,211.685L83.27,211.716L83.232,211.746L83.194,211.776L83.157,211.806L83.119,211.836L83.081,211.865L83.042,211.894L83.004,211.923L82.965,211.951L82.927,211.98L82.888,212.008L82.849,212.035L82.81,212.063L82.771,212.09L82.731,212.117L82.692,212.143L82.652,212.17L82.612,212.196L82.573,212.221L82.533,212.247L82.492,212.272L82.452,212.297L82.412,212.322L82.371,212.346L82.331,212.37L82.29,212.394L82.249,212.418L82.208,212.441L82.167,212.464L82.126,212.487L82.085,212.51L82.043,212.532L82.002,212.554L81.96,212.575L81.919,212.597L81.877,212.618L81.835,212.639L81.793,212.659L81.751,212.68L81.709,212.7L81.666,212.72L81.624,212.739L81.581,212.758L81.539,212.777L81.496,212.796L81.453,212.814L81.411,212.833L81.368,212.85L81.325,212.868L81.282,212.885L81.238,212.902L81.195,212.919L81.152,212.936L81.108,212.952L81.065,212.968L81.021,212.984L80.977,212.999L80.934,213.014L80.89,213.029L80.846,213.044L80.802,213.058L80.758,213.072L80.714,213.086L80.67,213.099L80.626,213.112L80.581,213.125L80.537,213.138L80.493,213.15L80.448,213.163L80.404,213.174L80.359,213.186L80.314,213.197L80.27,213.208L80.225,213.219L80.18,213.23L80.135,213.24L80.091,213.25L80.046,213.26L80.001,213.269L79.956,213.278L79.911,213.287L79.865,213.296L79.82,213.304L79.775,213.312L79.73,213.32L79.685,213.327L79.639,213.334L79.594,213.341L79.549,213.348L79.503,213.354L79.458,213.361L79.412,213.366L79.367,213.372L79.321,213.377L79.276,213.382L79.23,213.387L79.185,213.392L79.139,213.396L79.093,213.4L79.048,213.404L79.002,213.407L78.957,213.41L78.911,213.413L78.865,213.416L78.819,213.418L78.774,213.42L78.728,213.422L78.682,213.423L78.637,213.424L78.591,213.425L78.545,213.426L78.499,213.426L78.454,213.427L78.408,213.426L78.362,213.426L78.316,213.425L78.27,213.424L78.225,213.423L78.179,213.422L78.133,213.42L78.088,213.418L78.042,213.416L77.996,213.413L77.95,213.41L77.905,213.407L77.859,213.404L77.814,213.4L77.768,213.396L77.722,213.392L77.677,213.387L77.631,213.382L77.586,213.377L77.54,213.372L77.495,213.366L77.449,213.361L77.404,213.354L77.358,213.348L77.313,213.341L77.268,213.334L77.222,213.327L77.177,213.32L77.132,213.312L77.087,213.304L77.042,213.296L76.996,213.287L76.951,213.278L76.906,213.269L76.861,213.26L76.816,213.25L76.772,213.24L76.727,213.23L76.682,213.219L76.637,213.208L76.593,213.197L76.548,213.186L76.503,213.174L76.459,213.163L76.414,213.15L76.37,213.138L76.326,213.125L76.281,213.112L76.237,213.099L76.193,213.086L76.149,213.072L76.105,213.058L76.061,213.044L76.017,213.029L75.973,213.014L75.93,212.999L75.886,212.984L75.842,212.968L75.799,212.952L75.755,212.936L75.712,212.919L75.669,212.902L75.625,212.885L75.582,212.868L75.539,212.85L75.496,212.833L75.454,212.814L75.411,212.796L75.368,212.777L75.326,212.758L75.283,212.739L75.241,212.72L75.198,212.7L75.156,212.68L75.114,212.659L75.072,212.639L75.03,212.618L74.988,212.597L74.947,212.575L74.905,212.554L74.864,212.532L74.822,212.51L74.781,212.487L74.74,212.464L74.699,212.441L74.658,212.418L74.617,212.394L74.576,212.37L74.536,212.346L74.495,212.322L74.455,212.297L74.415,212.272L74.374,212.247L74.334,212.221L74.295,212.196L74.255,212.17L74.215,212.143L74.176,212.117L74.136,212.09L74.097,212.063L74.058,212.035L74.019,212.008L73.98,211.98L73.942,211.951L73.903,211.923L73.865,211.894L73.826,211.865L73.788,211.836L73.75,211.806L73.712,211.776L73.675,211.746L73.637,211.716L73.6,211.685L73.563,211.654L73.526,211.623L73.489,211.591L73.452,211.56L73.415,211.528L73.379,211.495L73.343,211.463L73.306,211.43L73.27,211.397L73.235,211.363L73.199,211.33L73.163,211.296L73.128,211.262L73.093,211.227L73.058,211.193L58.397,196.53L58.362,196.495L58.328,196.46L58.294,196.425L58.26,196.389L58.226,196.354L58.193,196.318L58.159,196.282L58.127,196.246L58.094,196.21L58.062,196.173L58.03,196.137L57.998,196.1L57.966,196.063L57.935,196.026L57.904,195.989L57.873,195.951L57.843,195.914L57.813,195.876L57.783,195.838L57.753,195.8L57.724,195.762L57.695,195.724L57.666,195.686L57.638,195.647L57.61,195.608L57.582,195.57L57.554,195.531L57.526,195.492L57.499,195.452L57.472,195.413L57.446,195.373L57.419,195.334L57.393,195.294L57.368,195.254L57.342,195.214L57.317,195.174L57.292,195.134L57.267,195.094L57.243,195.053L57.219,195.012L57.195,194.972L57.171,194.931L57.148,194.89L57.125,194.849L57.102,194.808L57.079,194.767L57.057,194.725L57.035,194.684L57.013,194.642L56.992,194.6L56.971,194.559L56.95,194.517L56.929,194.475L56.909,194.433L56.889,194.391L56.869,194.348L56.85,194.306L56.83,194.263L56.811,194.221L56.793,194.178L56.774,194.135L56.756,194.092L56.738,194.05L56.721,194.007L56.703,193.963L56.686,193.92L56.67,193.877L56.653,193.834L56.637,193.79L56.621,193.747L56.605,193.703L56.59,193.659L56.575,193.616L56.56,193.572L56.545,193.528L56.531,193.484L56.517,193.44L56.503,193.396L56.489,193.352L56.476,193.308L56.463,193.263L56.451,193.219L56.438,193.175L56.426,193.13L56.414,193.086L56.403,193.041L56.391,192.997L56.38,192.952L56.369,192.907L56.359,192.862L56.349,192.817L56.339,192.773L56.329,192.728L56.32,192.683L56.31,192.638L56.302,192.593L56.293,192.548L56.285,192.502L56.277,192.457L56.269,192.412L56.261,192.367L56.254,192.321L56.247,192.276L56.241,192.231L56.234,192.185L56.228,192.14L56.222,192.094L56.217,192.049L56.211,192.004L56.206,191.958L56.201,191.912L56.197,191.867L56.193,191.821L56.189,191.776L56.185,191.73L56.182,191.684L56.178,191.639L56.176,191.593L56.173,191.547L56.171,191.502L56.169,191.456L56.167,191.41L56.165,191.364L56.164,191.319L56.163,191.273L56.163,191.227L56.162,191.181L56.162,191.136L56.162,191.09L56.163,191.044L56.163,190.998L56.164,190.953L56.165,190.907L56.167,190.861L56.169,190.815L56.171,190.77L56.173,190.724L56.176,190.678L56.178,190.633L56.182,190.587L56.185,190.541L56.189,190.496L56.193,190.45L56.197,190.405L56.201,190.359L56.206,190.313L56.211,190.268L56.217,190.222L56.222,190.177L56.228,190.131L56.234,190.086L56.241,190.041L56.247,189.995L56.254,189.95L56.261,189.905L56.269,189.859L56.277,189.814L56.285,189.769L56.293,189.724L56.302,189.679L56.31,189.634L56.32,189.589L56.329,189.544L56.339,189.499L56.349,189.454L56.359,189.409L56.369,189.364L56.38,189.319L56.391,189.275L56.403,189.23L56.414,189.186L56.426,189.141L56.438,189.097L56.451,189.052L56.463,189.008L56.476,188.964L56.489,188.919L56.503,188.875L56.517,188.831L56.531,188.787L56.545,188.743L56.56,188.699L56.575,188.655L56.59,188.612L56.605,188.568L56.621,188.525L56.637,188.481L56.653,188.438L56.67,188.394L56.686,188.351L56.703,188.308L56.721,188.265L56.738,188.222L56.756,188.179L56.774,188.136L56.793,188.093L56.811,188.05L56.83,188.008L56.85,187.965L56.869,187.923L56.889,187.881L56.909,187.838L56.929,187.796L56.95,187.754L56.971,187.712L56.992,187.671L57.013,187.629L57.035,187.587L57.057,187.546L57.079,187.504L57.102,187.463L57.125,187.422L57.148,187.381L57.171,187.34L57.195,187.299L57.219,187.259L57.243,187.218L57.267,187.177L57.292,187.137L57.317,187.097L57.342,187.057L57.368,187.017L57.393,186.977L57.419,186.937L57.446,186.897L57.472,186.858L57.499,186.819L57.526,186.779L57.554,186.74L57.582,186.701L57.609,186.663L57.638,186.624L57.666,186.585L57.695,186.547L57.724,186.509L57.753,186.471L57.783,186.433L57.813,186.395L57.843,186.357L57.873,186.32L57.904,186.282L57.935,186.245L57.966,186.208L57.998,186.171L58.03,186.134L58.062,186.097L58.094,186.061L58.127,186.025L58.159,185.989L58.192,185.953L58.226,185.917L58.26,185.881L58.294,185.846L58.328,185.81L58.362,185.775L58.397,185.741L73.058,171.078L73.093,171.044L73.128,171.009L73.163,170.975L73.199,170.941L73.235,170.907L73.27,170.874L73.306,170.841L73.343,170.808L73.379,170.775L73.415,170.743L73.452,170.711L73.489,170.679L73.526,170.648L73.563,170.616L73.6,170.586L73.637,170.555L73.675,170.524L73.712,170.494L73.75,170.464L73.788,170.435L73.826,170.406L73.865,170.377L73.903,170.348L73.942,170.319L73.98,170.291L74.019,170.263L74.058,170.235L74.097,170.208L74.136,170.181L74.176,170.154L74.215,170.127L74.255,170.101L74.295,170.075L74.334,170.049L74.374,170.024L74.415,169.998L74.455,169.973L74.495,169.949L74.536,169.924L74.576,169.9L74.617,169.876L74.658,169.853L74.699,169.829L74.74,169.806L74.781,169.784L74.822,169.761L74.864,169.739L74.905,169.717L74.947,169.695L74.988,169.674L75.03,169.653L75.072,169.632L75.114,169.611L75.156,169.591L75.198,169.571L75.241,169.551L75.283,169.532L75.326,169.512L75.368,169.493L75.411,169.475L75.454,169.456L75.496,169.438L75.539,169.42L75.582,169.403L75.625,169.385L75.669,169.368L75.712,169.351L75.755,169.335L75.799,169.319L75.842,169.303L75.886,169.287L75.93,169.272L75.973,169.257L76.017,169.242L76.061,169.227L76.105,169.213L76.149,169.199L76.193,169.185L76.237,169.171L76.281,169.158L76.326,169.145L76.37,169.133L76.414,169.12L76.459,169.108L76.503,169.096L76.548,169.085L76.593,169.073L76.637,169.062L76.682,169.051L76.727,169.041L76.772,169.031L76.816,169.021L76.861,169.011L76.906,169.002L76.951,168.993L76.996,168.984L77.042,168.975L77.087,168.967L77.132,168.959L77.177,168.951L77.222,168.943L77.268,168.936L77.313,168.929L77.358,168.923L77.404,168.916L77.449,168.91L77.495,168.904L77.54,168.899L77.586,168.893L77.631,168.888L77.677,168.883L77.722,168.879L77.768,168.875L77.814,168.871L77.859,168.867L77.905,168.864L77.95,168.861L77.996,168.858L78.042,168.855L78.088,168.853L78.133,168.851L78.179,168.849L78.225,168.847L78.27,168.846L78.316,168.845L78.362,168.845L78.408,168.844L78.454,168.844L78.499,168.844ZM78.411,169.454L78.369,169.454L78.327,169.455L78.285,169.456L78.243,169.457L78.201,169.458L78.159,169.46L78.117,169.462L78.075,169.464L78.032,169.466L77.99,169.469L77.948,169.472L77.906,169.475L77.864,169.478L77.822,169.482L77.78,169.486L77.738,169.49L77.696,169.494L77.655,169.499L77.613,169.504L77.571,169.509L77.529,169.514L77.487,169.52L77.445,169.526L77.404,169.532L77.362,169.538L77.32,169.545L77.279,169.552L77.237,169.559L77.195,169.567L77.154,169.574L77.112,169.582L77.071,169.59L77.029,169.599L76.988,169.607L76.947,169.616L76.905,169.625L76.864,169.635L76.823,169.644L76.782,169.654L76.741,169.665L76.7,169.675L76.659,169.686L76.618,169.697L76.577,169.708L76.536,169.719L76.495,169.731L76.454,169.743L76.414,169.755L76.373,169.767L76.332,169.78L76.292,169.793L76.252,169.806L76.211,169.819L76.171,169.833L76.131,169.847L76.09,169.861L76.05,169.876L76.01,169.89L75.97,169.905L75.931,169.92L75.891,169.936L75.851,169.952L75.811,169.967L75.772,169.984L75.732,170L75.693,170.017L75.654,170.034L75.614,170.051L75.575,170.068L75.536,170.086L75.497,170.104L75.458,170.122L75.419,170.141L75.381,170.159L75.342,170.178L75.304,170.197L75.265,170.217L75.227,170.237L75.189,170.256L75.15,170.277L75.112,170.297L75.074,170.318L75.037,170.339L74.999,170.36L74.961,170.381L74.924,170.403L74.886,170.425L74.849,170.447L74.812,170.47L74.775,170.492L74.738,170.515L74.701,170.539L74.664,170.562L74.627,170.586L74.591,170.61L74.554,170.634L74.518,170.658L74.482,170.683L74.446,170.708L74.41,170.733L74.374,170.759L74.338,170.784L74.303,170.81L74.267,170.837L74.232,170.863L74.197,170.89L74.161,170.917L74.126,170.944L74.092,170.972L74.057,170.999L74.022,171.027L73.988,171.056L73.954,171.084L73.92,171.113L73.886,171.142L73.852,171.171L73.818,171.2L73.785,171.23L73.751,171.26L73.718,171.29L73.685,171.321L73.652,171.352L73.619,171.383L73.586,171.414L73.554,171.446L73.521,171.477L73.489,171.51L58.828,186.171L58.796,186.204L58.764,186.236L58.733,186.268L58.701,186.301L58.67,186.334L58.64,186.367L58.609,186.4L58.579,186.433L58.549,186.467L58.519,186.5L58.49,186.534L58.46,186.568L58.431,186.602L58.402,186.636L58.374,186.67L58.346,186.705L58.318,186.739L58.29,186.774L58.263,186.809L58.235,186.844L58.208,186.879L58.182,186.914L58.155,186.949L58.129,186.985L58.103,187.02L58.077,187.056L58.052,187.092L58.026,187.128L58.001,187.164L57.977,187.2L57.952,187.237L57.928,187.273L57.904,187.309L57.88,187.346L57.857,187.383L57.834,187.42L57.811,187.457L57.788,187.494L57.766,187.531L57.743,187.568L57.721,187.606L57.7,187.644L57.678,187.681L57.657,187.719L57.636,187.757L57.615,187.795L57.595,187.833L57.575,187.871L57.555,187.909L57.535,187.947L57.516,187.986L57.496,188.024L57.478,188.063L57.459,188.102L57.44,188.141L57.422,188.18L57.404,188.218L57.387,188.258L57.369,188.297L57.352,188.336L57.335,188.375L57.318,188.415L57.302,188.454L57.286,188.494L57.27,188.533L57.254,188.573L57.239,188.613L57.223,188.653L57.208,188.693L57.194,188.733L57.179,188.773L57.165,188.813L57.151,188.853L57.138,188.894L57.124,188.934L57.111,188.974L57.098,189.015L57.085,189.055L57.073,189.096L57.061,189.137L57.049,189.177L57.037,189.218L57.026,189.259L57.015,189.3L57.004,189.341L56.993,189.382L56.983,189.423L56.972,189.464L56.962,189.505L56.953,189.546L56.943,189.588L56.934,189.629L56.925,189.67L56.917,189.712L56.908,189.753L56.9,189.795L56.892,189.836L56.885,189.878L56.877,189.919L56.87,189.961L56.863,190.003L56.856,190.044L56.85,190.086L56.844,190.128L56.838,190.169L56.832,190.211L56.827,190.253L56.822,190.295L56.817,190.337L56.812,190.379L56.808,190.421L56.804,190.463L56.8,190.505L56.796,190.547L56.793,190.589L56.79,190.631L56.787,190.673L56.784,190.715L56.782,190.757L56.78,190.799L56.778,190.841L56.776,190.883L56.775,190.925L56.774,190.967L56.773,191.009L56.772,191.051L56.772,191.094L56.772,191.136L56.772,191.178L56.772,191.22L56.773,191.262L56.774,191.304L56.775,191.346L56.776,191.388L56.778,191.43L56.78,191.473L56.782,191.515L56.784,191.557L56.787,191.599L56.79,191.641L56.793,191.683L56.796,191.725L56.8,191.767L56.804,191.809L56.808,191.851L56.812,191.893L56.817,191.934L56.822,191.976L56.827,192.018L56.832,192.06L56.838,192.102L56.844,192.144L56.85,192.185L56.856,192.227L56.863,192.269L56.87,192.31L56.877,192.352L56.885,192.394L56.892,192.435L56.9,192.477L56.908,192.518L56.917,192.56L56.925,192.601L56.934,192.642L56.943,192.684L56.953,192.725L56.962,192.766L56.972,192.807L56.983,192.848L56.993,192.889L57.004,192.931L57.015,192.971L57.026,193.012L57.037,193.053L57.049,193.094L57.061,193.135L57.073,193.175L57.085,193.216L57.098,193.256L57.111,193.297L57.124,193.337L57.138,193.378L57.151,193.418L57.165,193.458L57.179,193.498L57.194,193.538L57.208,193.578L57.223,193.618L57.239,193.658L57.254,193.698L57.27,193.738L57.286,193.777L57.302,193.817L57.318,193.856L57.335,193.896L57.352,193.935L57.369,193.974L57.387,194.014L57.404,194.053L57.422,194.092L57.44,194.13L57.459,194.169L57.478,194.208L57.496,194.247L57.516,194.285L57.535,194.324L57.555,194.362L57.575,194.4L57.595,194.438L57.615,194.476L57.636,194.514L57.657,194.552L57.678,194.59L57.7,194.627L57.721,194.665L57.743,194.703L57.766,194.74L57.788,194.777L57.811,194.814L57.834,194.851L57.857,194.888L57.88,194.925L57.904,194.961L57.928,194.998L57.952,195.034L57.977,195.071L58.001,195.107L58.026,195.143L58.052,195.179L58.077,195.215L58.103,195.25L58.129,195.286L58.155,195.321L58.182,195.357L58.208,195.392L58.235,195.427L58.263,195.462L58.29,195.497L58.318,195.531L58.346,195.566L58.374,195.6L58.402,195.635L58.431,195.669L58.46,195.703L58.489,195.737L58.519,195.77L58.549,195.804L58.579,195.837L58.609,195.87L58.64,195.904L58.67,195.937L58.701,195.969L58.733,196.002L58.764,196.035L58.796,196.067L58.828,196.1L73.489,210.761L73.521,210.793L73.554,210.825L73.586,210.857L73.619,210.888L73.652,210.919L73.685,210.95L73.718,210.98L73.751,211.01L73.785,211.04L73.818,211.07L73.852,211.1L73.886,211.129L73.92,211.158L73.954,211.187L73.988,211.215L74.022,211.243L74.057,211.271L74.092,211.299L74.126,211.326L74.161,211.354L74.197,211.381L74.232,211.407L74.267,211.434L74.303,211.46L74.338,211.486L74.374,211.512L74.41,211.537L74.446,211.563L74.482,211.587L74.518,211.612L74.554,211.637L74.591,211.661L74.627,211.685L74.664,211.709L74.701,211.732L74.738,211.755L74.775,211.778L74.812,211.801L74.849,211.823L74.886,211.846L74.924,211.867L74.961,211.889L74.999,211.911L75.037,211.932L75.074,211.953L75.112,211.973L75.15,211.994L75.189,212.014L75.227,212.034L75.265,212.054L75.304,212.073L75.342,212.092L75.381,212.111L75.419,212.13L75.458,212.148L75.497,212.167L75.536,212.185L75.575,212.202L75.614,212.22L75.654,212.237L75.693,212.254L75.732,212.27L75.772,212.287L75.811,212.303L75.851,212.319L75.891,212.335L75.931,212.35L75.97,212.365L76.01,212.38L76.05,212.395L76.09,212.409L76.131,212.424L76.171,212.437L76.211,212.451L76.252,212.465L76.292,212.478L76.332,212.491L76.373,212.503L76.414,212.516L76.454,212.528L76.495,212.54L76.536,212.552L76.577,212.563L76.618,212.574L76.659,212.585L76.7,212.596L76.741,212.606L76.782,212.616L76.823,212.626L76.864,212.636L76.905,212.645L76.947,212.654L76.988,212.663L77.029,212.672L77.071,212.68L77.112,212.689L77.154,212.696L77.195,212.704L77.237,212.711L77.279,212.719L77.32,212.726L77.362,212.732L77.404,212.739L77.445,212.745L77.487,212.751L77.529,212.756L77.571,212.762L77.613,212.767L77.655,212.772L77.696,212.776L77.738,212.781L77.78,212.785L77.822,212.789L77.864,212.792L77.906,212.796L77.948,212.799L77.99,212.802L78.032,212.804L78.075,212.807L78.117,212.809L78.159,212.811L78.201,212.813L78.243,212.814L78.285,212.815L78.327,212.816L78.369,212.817L78.411,212.817L78.454,212.817L78.496,212.817L78.538,212.817L78.58,212.816L78.622,212.815L78.664,212.814L78.706,212.813L78.748,212.811L78.79,212.809L78.832,212.807L78.875,212.804L78.917,212.802L78.959,212.799L79.001,212.796L79.043,212.792L79.085,212.789L79.127,212.785L79.169,212.781L79.211,212.776L79.252,212.772L79.294,212.767L79.336,212.762L79.378,212.756L79.42,212.751L79.462,212.745L79.503,212.739L79.545,212.732L79.587,212.726L79.628,212.719L79.67,212.711L79.712,212.704L79.753,212.696L79.795,212.689L79.836,212.68L79.878,212.672L79.919,212.663L79.96,212.654L80.002,212.645L80.043,212.636L80.084,212.626L80.125,212.616L80.166,212.606L80.207,212.596L80.248,212.585L80.289,212.574L80.33,212.563L80.371,212.551L80.412,212.54L80.453,212.528L80.493,212.516L80.534,212.503L80.574,212.491L80.615,212.478L80.655,212.465L80.696,212.451L80.736,212.437L80.776,212.424L80.816,212.409L80.857,212.395L80.897,212.38L80.937,212.365L80.976,212.35L81.016,212.335L81.056,212.319L81.096,212.303L81.135,212.287L81.175,212.27L81.214,212.254L81.253,212.237L81.293,212.22L81.332,212.202L81.371,212.185L81.41,212.167L81.449,212.148L81.488,212.13L81.526,212.111L81.565,212.092L81.603,212.073L81.642,212.054L81.68,212.034L81.719,212.014L81.757,211.994L81.795,211.973L81.833,211.953L81.87,211.932L81.908,211.911L81.946,211.889L81.983,211.867L82.021,211.846L82.058,211.823L82.095,211.801L82.132,211.778L82.169,211.755L82.206,211.732L82.243,211.709L82.28,211.685L82.316,211.661L82.353,211.637L82.389,211.612L82.425,211.587L82.461,211.563L82.497,211.537L82.533,211.512L82.569,211.486L82.604,211.46L82.64,211.434L82.675,211.407L82.71,211.381L82.746,211.354L82.78,211.326L82.815,211.299L82.85,211.271L82.885,211.243L82.919,211.215L82.953,211.187L82.987,211.158L83.021,211.129L83.055,211.1L83.089,211.07L83.122,211.04L83.156,211.01L83.189,210.98L83.222,210.95L83.255,210.919L83.288,210.888L83.321,210.857L83.353,210.825L83.386,210.793L83.418,210.761L98.079,196.1L98.111,196.067L98.143,196.035L98.174,196.002L98.206,195.969L98.237,195.937L98.267,195.904L98.298,195.87L98.328,195.837L98.358,195.804L98.388,195.77L98.417,195.737L98.447,195.703L98.476,195.669L98.505,195.635L98.533,195.6L98.561,195.566L98.589,195.531L98.617,195.497L98.644,195.462L98.672,195.427L98.699,195.392L98.725,195.357L98.752,195.321L98.778,195.286L98.804,195.25L98.83,195.215L98.855,195.179L98.881,195.143L98.905,195.107L98.93,195.071L98.955,195.034L98.979,194.998L99.003,194.961L99.027,194.925L99.05,194.888L99.073,194.851L99.096,194.814L99.119,194.777L99.141,194.74L99.164,194.702L99.186,194.665L99.207,194.627L99.229,194.59L99.25,194.552L99.271,194.514L99.292,194.476L99.312,194.438L99.332,194.4L99.352,194.362L99.372,194.324L99.391,194.285L99.411,194.247L99.43,194.208L99.448,194.169L99.467,194.131L99.485,194.092L99.503,194.053L99.521,194.013L99.538,193.974L99.555,193.935L99.572,193.896L99.589,193.856L99.605,193.817L99.621,193.777L99.637,193.738L99.653,193.698L99.668,193.658L99.684,193.618L99.699,193.578L99.713,193.538L99.728,193.498L99.742,193.458L99.756,193.418L99.769,193.378L99.783,193.337L99.796,193.297L99.809,193.257L99.822,193.216L99.834,193.175L99.846,193.135L99.858,193.094L99.87,193.053L99.881,193.012L99.892,192.971L99.903,192.93L99.914,192.889L99.924,192.848L99.935,192.807L99.945,192.766L99.954,192.725L99.964,192.684L99.973,192.642L99.982,192.601L99.99,192.56L99.999,192.518L100.007,192.477L100.015,192.435L100.023,192.394L100.03,192.352L100.037,192.31L100.044,192.269L100.051,192.227L100.057,192.185L100.063,192.144L100.069,192.102L100.075,192.06L100.08,192.018L100.085,191.976L100.09,191.934L100.095,191.893L100.099,191.851L100.103,191.809L100.107,191.767L100.111,191.725L100.114,191.683L100.117,191.641L100.12,191.599L100.123,191.557L100.125,191.515L100.127,191.473L100.129,191.43L100.131,191.388L100.132,191.346L100.133,191.304L100.134,191.262L100.135,191.22L100.135,191.178L100.135,191.136L100.135,191.094L100.135,191.051L100.134,191.009L100.133,190.967L100.132,190.925L100.131,190.883L100.129,190.841L100.127,190.799L100.125,190.757L100.123,190.715L100.12,190.673L100.117,190.631L100.114,190.589L100.111,190.547L100.107,190.505L100.103,190.463L100.099,190.421L100.095,190.379L100.09,190.337L100.085,190.295L100.08,190.253L100.075,190.211L100.069,190.169L100.063,190.128L100.057,190.086L100.051,190.044L100.044,190.003L100.037,189.961L100.03,189.919L100.023,189.878L100.015,189.836L100.007,189.795L99.999,189.753L99.99,189.712L99.982,189.67L99.973,189.629L99.964,189.588L99.954,189.546L99.945,189.505L99.935,189.464L99.924,189.423L99.914,189.382L99.903,189.341L99.892,189.3L99.881,189.259L99.87,189.218L99.858,189.177L99.846,189.137L99.834,189.096L99.822,189.055L99.809,189.015L99.796,188.974L99.783,188.934L99.769,188.893L99.756,188.853L99.742,188.813L99.728,188.773L99.713,188.733L99.699,188.693L99.684,188.653L99.668,188.613L99.653,188.573L99.637,188.533L99.621,188.494L99.605,188.454L99.589,188.415L99.572,188.375L99.555,188.336L99.538,188.297L99.521,188.258L99.503,188.219L99.485,188.179L99.467,188.141L99.448,188.102L99.43,188.063L99.411,188.024L99.391,187.986L99.372,187.947L99.352,187.909L99.332,187.871L99.312,187.833L99.292,187.795L99.271,187.757L99.25,187.719L99.229,187.681L99.207,187.644L99.186,187.606L99.164,187.569L99.141,187.531L99.119,187.494L99.096,187.457L99.073,187.42L99.05,187.383L99.027,187.346L99.003,187.31L98.979,187.273L98.955,187.237L98.93,187.2L98.905,187.164L98.881,187.128L98.855,187.092L98.83,187.056L98.804,187.02L98.778,186.985L98.752,186.949L98.725,186.914L98.699,186.879L98.672,186.844L98.644,186.809L98.617,186.774L98.589,186.739L98.561,186.705L98.533,186.67L98.505,186.636L98.476,186.602L98.447,186.568L98.417,186.534L98.388,186.5L98.358,186.467L98.328,186.433L98.298,186.4L98.267,186.367L98.237,186.334L98.206,186.301L98.174,186.268L98.143,186.236L98.111,186.204L98.079,186.171L83.418,171.51L83.386,171.477L83.353,171.446L83.321,171.414L83.288,171.383L83.255,171.352L83.222,171.321L83.189,171.29L83.156,171.26L83.122,171.23L83.089,171.2L83.055,171.171L83.021,171.142L82.987,171.113L82.953,171.084L82.919,171.055L82.885,171.027L82.85,170.999L82.815,170.972L82.78,170.944L82.746,170.917L82.71,170.89L82.675,170.863L82.64,170.837L82.604,170.81L82.569,170.784L82.533,170.759L82.497,170.733L82.461,170.708L82.425,170.683L82.389,170.658L82.353,170.634L82.316,170.61L82.28,170.586L82.243,170.562L82.206,170.539L82.169,170.515L82.132,170.492L82.095,170.47L82.058,170.447L82.021,170.425L81.983,170.403L81.946,170.381L81.908,170.36L81.87,170.339L81.833,170.318L81.795,170.297L81.757,170.277L81.719,170.257L81.68,170.237L81.642,170.217L81.603,170.197L81.565,170.178L81.526,170.159L81.488,170.141L81.449,170.122L81.41,170.104L81.371,170.086L81.332,170.068L81.293,170.051L81.253,170.034L81.214,170.017L81.175,170L81.135,169.984L81.096,169.967L81.056,169.952L81.016,169.936L80.976,169.92L80.937,169.905L80.897,169.89L80.857,169.876L80.816,169.861L80.776,169.847L80.736,169.833L80.696,169.819L80.655,169.806L80.615,169.793L80.574,169.78L80.534,169.767L80.493,169.755L80.453,169.743L80.412,169.731L80.371,169.719L80.33,169.708L80.289,169.697L80.248,169.686L80.207,169.675L80.166,169.665L80.125,169.654L80.084,169.644L80.043,169.635L80.002,169.625L79.96,169.616L79.919,169.607L79.878,169.599L79.836,169.59L79.795,169.582L79.753,169.574L79.712,169.567L79.67,169.559L79.628,169.552L79.587,169.545L79.545,169.538L79.503,169.532L79.462,169.526L79.42,169.52L79.378,169.514L79.336,169.509L79.294,169.504L79.252,169.499L79.211,169.494L79.169,169.49L79.127,169.486L79.085,169.482L79.043,169.478L79.001,169.475L78.959,169.472L78.917,169.469L78.875,169.466L78.832,169.464L78.79,169.462L78.748,169.46L78.706,169.458L78.664,169.457L78.622,169.456L78.58,169.455L78.538,169.454L78.496,169.454L78.454,169.454L78.411,169.454Z" style="fill:rgb(30,30,30);"/>
            </g>
            <g transform="matrix(4.92163,0,0,4.92163,-138.767,-731.487)">
                <path d="M78.499,186.536L78.545,186.537L78.591,186.538L78.637,186.538L78.682,186.54L78.728,186.541L78.774,186.543L78.819,186.545L78.865,186.547L78.911,186.55L78.957,186.553L79.002,186.556L79.048,186.559L79.093,186.563L79.139,186.567L79.185,186.571L79.23,186.576L79.276,186.58L79.321,186.586L79.367,186.591L79.412,186.596L79.458,186.602L79.503,186.608L79.549,186.615L79.594,186.622L79.639,186.628L79.685,186.636L79.73,186.643L79.775,186.651L79.82,186.659L79.865,186.667L79.911,186.676L79.956,186.685L80.001,186.694L80.046,186.703L80.091,186.713L80.135,186.723L80.18,186.733L80.225,186.744L80.27,186.755L80.314,186.766L80.359,186.777L80.404,186.788L80.448,186.8L80.493,186.812L80.537,186.825L80.581,186.838L80.626,186.851L80.67,186.864L80.714,186.877L80.758,186.891L80.802,186.905L80.846,186.919L80.89,186.934L80.934,186.949L80.978,186.964L81.021,186.979L81.065,186.995L81.108,187.011L81.152,187.027L81.195,187.044L81.238,187.061L81.282,187.078L81.325,187.095L81.368,187.113L81.411,187.131L81.453,187.149L81.496,187.167L81.539,187.186L81.581,187.205L81.624,187.224L81.666,187.244L81.709,187.263L81.751,187.283L81.793,187.304L81.835,187.324L81.877,187.345L81.919,187.366L81.96,187.388L82.002,187.409L82.043,187.431L82.085,187.454L82.126,187.476L82.167,187.499L82.208,187.522L82.249,187.545L82.29,187.569L82.331,187.593L82.371,187.617L82.412,187.641L82.452,187.666L82.492,187.691L82.533,187.716L82.573,187.742L82.612,187.768L82.652,187.794L82.692,187.82L82.731,187.847L82.771,187.873L82.81,187.901L82.849,187.928L82.888,187.956L82.927,187.984L82.965,188.012L83.004,188.041L83.042,188.069L83.081,188.098L83.119,188.128L83.157,188.157L83.195,188.187L83.232,188.217L83.27,188.248L83.307,188.278L83.344,188.309L83.381,188.341L83.418,188.372L83.455,188.404L83.492,188.436L83.528,188.468L83.565,188.501L83.601,188.534L83.637,188.567L83.672,188.6L83.708,188.634L83.744,188.668L83.779,188.702L83.814,188.736L83.849,188.771L98.51,203.433L98.545,203.467L98.579,203.502L98.613,203.538L98.647,203.573L98.681,203.609L98.715,203.645L98.748,203.681L98.78,203.717L98.813,203.753L98.845,203.79L98.877,203.826L98.909,203.863L98.941,203.9L98.972,203.937L99.003,203.974L99.034,204.012L99.064,204.049L99.094,204.087L99.124,204.125L99.154,204.163L99.183,204.201L99.212,204.239L99.241,204.277L99.269,204.316L99.298,204.355L99.326,204.393L99.353,204.432L99.381,204.471L99.408,204.511L99.435,204.55L99.461,204.589L99.488,204.629L99.514,204.669L99.539,204.709L99.565,204.749L99.59,204.789L99.615,204.829L99.64,204.869L99.664,204.91L99.688,204.95L99.712,204.991L99.736,205.032L99.759,205.073L99.782,205.114L99.805,205.155L99.828,205.196L99.85,205.238L99.872,205.279L99.894,205.321L99.915,205.363L99.936,205.404L99.957,205.446L99.978,205.488L99.998,205.53L100.018,205.573L100.038,205.615L100.057,205.657L100.077,205.7L100.096,205.742L100.114,205.785L100.133,205.828L100.151,205.871L100.169,205.914L100.186,205.957L100.204,206L100.221,206.043L100.237,206.086L100.254,206.13L100.27,206.173L100.286,206.217L100.302,206.26L100.317,206.304L100.332,206.348L100.347,206.391L100.362,206.435L100.376,206.479L100.39,206.523L100.404,206.567L100.417,206.611L100.431,206.656L100.444,206.7L100.456,206.744L100.469,206.789L100.481,206.833L100.493,206.878L100.504,206.922L100.516,206.967L100.527,207.012L100.538,207.056L100.548,207.101L100.558,207.146L100.568,207.191L100.578,207.236L100.587,207.281L100.596,207.326L100.605,207.371L100.614,207.416L100.622,207.461L100.63,207.506L100.638,207.551L100.646,207.597L100.653,207.642L100.66,207.687L100.666,207.733L100.673,207.778L100.679,207.823L100.685,207.869L100.69,207.914L100.696,207.96L100.701,208.006L100.706,208.051L100.71,208.097L100.714,208.142L100.718,208.188L100.722,208.233L100.725,208.279L100.729,208.325L100.731,208.371L100.734,208.416L100.736,208.462L100.738,208.508L100.74,208.553L100.742,208.599L100.743,208.645L100.744,208.691L100.744,208.736L100.745,208.782L100.745,208.828L100.745,208.874L100.744,208.919L100.744,208.965L100.743,209.011L100.742,209.057L100.74,209.102L100.738,209.148L100.736,209.194L100.734,209.239L100.731,209.285L100.729,209.331L100.725,209.377L100.722,209.422L100.718,209.468L100.714,209.513L100.71,209.559L100.706,209.605L100.701,209.65L100.696,209.696L100.69,209.741L100.685,209.787L100.679,209.832L100.673,209.878L100.666,209.923L100.66,209.968L100.653,210.014L100.646,210.059L100.638,210.104L100.63,210.149L100.622,210.195L100.614,210.24L100.605,210.285L100.596,210.33L100.587,210.375L100.578,210.42L100.568,210.465L100.558,210.51L100.548,210.555L100.538,210.599L100.527,210.644L100.516,210.689L100.504,210.733L100.493,210.778L100.481,210.822L100.469,210.867L100.456,210.911L100.444,210.956L100.431,211L100.417,211.044L100.404,211.088L100.39,211.132L100.376,211.176L100.362,211.22L100.347,211.264L100.332,211.308L100.317,211.352L100.302,211.395L100.286,211.439L100.27,211.483L100.254,211.526L100.237,211.569L100.221,211.613L100.204,211.656L100.186,211.699L100.169,211.742L100.151,211.785L100.133,211.828L100.114,211.871L100.096,211.913L100.077,211.956L100.057,211.998L100.038,212.041L100.018,212.083L99.998,212.125L99.978,212.167L99.957,212.209L99.936,212.251L99.915,212.293L99.894,212.335L99.872,212.376L99.85,212.418L99.828,212.459L99.805,212.5L99.782,212.542L99.759,212.583L99.736,212.624L99.712,212.664L99.688,212.705L99.664,212.746L99.64,212.786L99.615,212.827L99.59,212.867L99.565,212.907L99.539,212.947L99.514,212.987L99.488,213.027L99.461,213.066L99.435,213.106L99.408,213.145L99.381,213.184L99.353,213.223L99.326,213.262L99.298,213.301L99.269,213.34L99.241,213.378L99.212,213.417L99.183,213.455L99.154,213.493L99.124,213.531L99.094,213.569L99.064,213.607L99.034,213.644L99.003,213.681L98.972,213.719L98.941,213.756L98.909,213.793L98.877,213.829L98.845,213.866L98.813,213.903L98.78,213.939L98.748,213.975L98.715,214.011L98.681,214.047L98.647,214.082L98.613,214.118L98.579,214.153L98.545,214.188L98.51,214.223L83.849,228.885L83.814,228.919L83.779,228.954L83.744,228.988L83.708,229.022L83.672,229.055L83.637,229.089L83.601,229.122L83.565,229.155L83.528,229.187L83.492,229.22L83.455,229.252L83.418,229.284L83.381,229.315L83.344,229.346L83.307,229.377L83.27,229.408L83.232,229.438L83.195,229.468L83.157,229.498L83.119,229.528L83.081,229.557L83.042,229.586L83.004,229.615L82.965,229.644L82.927,229.672L82.888,229.7L82.849,229.727L82.81,229.755L82.771,229.782L82.731,229.809L82.692,229.836L82.652,229.862L82.612,229.888L82.573,229.914L82.533,229.939L82.492,229.965L82.452,229.989L82.412,230.014L82.371,230.039L82.331,230.063L82.29,230.087L82.249,230.11L82.208,230.134L82.167,230.157L82.126,230.179L82.085,230.202L82.044,230.224L82.002,230.246L81.96,230.268L81.919,230.289L81.877,230.31L81.835,230.331L81.793,230.352L81.751,230.372L81.709,230.392L81.666,230.412L81.624,230.432L81.581,230.451L81.539,230.47L81.496,230.489L81.453,230.507L81.411,230.525L81.368,230.543L81.325,230.561L81.282,230.578L81.238,230.595L81.195,230.612L81.152,230.628L81.108,230.644L81.065,230.66L81.021,230.676L80.978,230.692L80.934,230.707L80.89,230.722L80.846,230.736L80.802,230.75L80.758,230.765L80.714,230.778L80.67,230.792L80.626,230.805L80.581,230.818L80.537,230.831L80.493,230.843L80.448,230.855L80.404,230.867L80.359,230.879L80.314,230.89L80.27,230.901L80.225,230.912L80.18,230.922L80.135,230.933L80.091,230.943L80.046,230.952L80.001,230.962L79.956,230.971L79.911,230.98L79.865,230.988L79.82,230.997L79.775,231.005L79.73,231.012L79.685,231.02L79.639,231.027L79.594,231.034L79.549,231.041L79.503,231.047L79.458,231.053L79.412,231.059L79.367,231.065L79.321,231.07L79.276,231.075L79.23,231.08L79.185,231.084L79.139,231.089L79.093,231.093L79.048,231.096L79.002,231.1L78.957,231.103L78.911,231.106L78.865,231.108L78.819,231.111L78.774,231.113L78.728,231.114L78.682,231.116L78.637,231.117L78.591,231.118L78.545,231.119L78.499,231.119L78.454,231.119L78.408,231.119L78.362,231.119L78.316,231.118L78.27,231.117L78.225,231.116L78.179,231.114L78.133,231.113L78.088,231.111L78.042,231.108L77.996,231.106L77.95,231.103L77.905,231.1L77.859,231.096L77.814,231.093L77.768,231.089L77.722,231.084L77.677,231.08L77.631,231.075L77.586,231.07L77.54,231.065L77.495,231.059L77.449,231.053L77.404,231.047L77.358,231.041L77.313,231.034L77.268,231.027L77.222,231.02L77.177,231.012L77.132,231.005L77.087,230.997L77.042,230.988L76.996,230.98L76.951,230.971L76.906,230.962L76.861,230.952L76.816,230.943L76.772,230.933L76.727,230.922L76.682,230.912L76.637,230.901L76.593,230.89L76.548,230.879L76.503,230.867L76.459,230.855L76.414,230.843L76.37,230.831L76.326,230.818L76.281,230.805L76.237,230.792L76.193,230.778L76.149,230.765L76.105,230.75L76.061,230.736L76.017,230.722L75.973,230.707L75.929,230.692L75.886,230.676L75.842,230.66L75.799,230.644L75.755,230.628L75.712,230.612L75.669,230.595L75.625,230.578L75.582,230.561L75.539,230.543L75.496,230.525L75.454,230.507L75.411,230.489L75.368,230.47L75.326,230.451L75.283,230.432L75.241,230.412L75.198,230.392L75.156,230.372L75.114,230.352L75.072,230.331L75.03,230.31L74.988,230.289L74.947,230.268L74.905,230.246L74.864,230.224L74.822,230.202L74.781,230.179L74.74,230.157L74.699,230.134L74.658,230.11L74.617,230.087L74.576,230.063L74.536,230.039L74.495,230.014L74.455,229.989L74.415,229.965L74.374,229.939L74.334,229.914L74.295,229.888L74.255,229.862L74.215,229.836L74.176,229.809L74.136,229.782L74.097,229.755L74.058,229.727L74.019,229.7L73.98,229.672L73.942,229.644L73.903,229.615L73.865,229.586L73.826,229.557L73.788,229.528L73.75,229.498L73.712,229.468L73.675,229.438L73.637,229.408L73.6,229.377L73.563,229.346L73.526,229.315L73.489,229.284L73.452,229.252L73.415,229.22L73.379,229.187L73.342,229.155L73.306,229.122L73.27,229.089L73.235,229.055L73.199,229.022L73.163,228.988L73.128,228.954L73.093,228.919L73.058,228.885L58.397,214.223L58.362,214.188L58.328,214.153L58.294,214.118L58.26,214.082L58.226,214.047L58.192,214.011L58.159,213.975L58.127,213.939L58.094,213.903L58.062,213.866L58.03,213.829L57.998,213.793L57.966,213.756L57.935,213.719L57.904,213.681L57.873,213.644L57.843,213.606L57.813,213.569L57.783,213.531L57.753,213.493L57.724,213.455L57.695,213.417L57.666,213.378L57.638,213.34L57.609,213.301L57.582,213.262L57.554,213.223L57.526,213.184L57.499,213.145L57.472,213.106L57.446,213.066L57.419,213.027L57.393,212.987L57.368,212.947L57.342,212.907L57.317,212.867L57.292,212.827L57.267,212.786L57.243,212.746L57.219,212.705L57.195,212.664L57.171,212.624L57.148,212.583L57.125,212.542L57.102,212.5L57.079,212.459L57.057,212.418L57.035,212.376L57.013,212.335L56.992,212.293L56.971,212.251L56.95,212.209L56.929,212.167L56.909,212.125L56.889,212.083L56.869,212.041L56.85,211.998L56.83,211.956L56.811,211.913L56.793,211.871L56.774,211.828L56.756,211.785L56.738,211.742L56.721,211.699L56.703,211.656L56.686,211.613L56.67,211.569L56.653,211.526L56.637,211.483L56.621,211.439L56.605,211.395L56.59,211.352L56.575,211.308L56.56,211.264L56.545,211.22L56.531,211.176L56.517,211.132L56.503,211.088L56.489,211.044L56.476,211L56.463,210.956L56.451,210.911L56.438,210.867L56.426,210.822L56.414,210.778L56.403,210.733L56.391,210.689L56.38,210.644L56.369,210.599L56.359,210.555L56.349,210.51L56.339,210.465L56.329,210.42L56.32,210.375L56.31,210.33L56.302,210.285L56.293,210.24L56.285,210.195L56.277,210.149L56.269,210.104L56.261,210.059L56.254,210.014L56.247,209.968L56.241,209.923L56.234,209.878L56.228,209.832L56.222,209.787L56.217,209.741L56.211,209.696L56.206,209.65L56.201,209.605L56.197,209.559L56.193,209.513L56.189,209.468L56.185,209.422L56.182,209.377L56.178,209.331L56.176,209.285L56.173,209.239L56.171,209.194L56.169,209.148L56.167,209.102L56.165,209.057L56.164,209.011L56.163,208.965L56.163,208.919L56.162,208.874L56.162,208.828L56.162,208.782L56.163,208.736L56.163,208.691L56.164,208.645L56.165,208.599L56.167,208.553L56.169,208.508L56.171,208.462L56.173,208.416L56.176,208.371L56.178,208.325L56.182,208.279L56.185,208.233L56.189,208.188L56.193,208.142L56.197,208.097L56.201,208.051L56.206,208.006L56.211,207.96L56.217,207.914L56.222,207.869L56.228,207.823L56.234,207.778L56.241,207.733L56.247,207.687L56.254,207.642L56.261,207.597L56.269,207.551L56.277,207.506L56.285,207.461L56.293,207.416L56.302,207.371L56.31,207.326L56.32,207.281L56.329,207.236L56.339,207.191L56.349,207.146L56.359,207.101L56.369,207.056L56.38,207.012L56.391,206.967L56.403,206.922L56.414,206.878L56.426,206.833L56.438,206.789L56.451,206.744L56.463,206.7L56.476,206.656L56.489,206.611L56.503,206.567L56.517,206.523L56.531,206.479L56.545,206.435L56.56,206.391L56.575,206.347L56.59,206.304L56.605,206.26L56.621,206.217L56.637,206.173L56.653,206.13L56.67,206.086L56.686,206.043L56.703,206L56.721,205.957L56.738,205.914L56.756,205.871L56.774,205.828L56.793,205.785L56.811,205.742L56.83,205.7L56.85,205.657L56.869,205.615L56.889,205.573L56.909,205.53L56.929,205.488L56.95,205.446L56.971,205.404L56.992,205.363L57.013,205.321L57.035,205.279L57.057,205.238L57.079,205.196L57.102,205.155L57.125,205.114L57.148,205.073L57.171,205.032L57.195,204.991L57.219,204.951L57.243,204.91L57.267,204.869L57.292,204.829L57.317,204.789L57.342,204.749L57.368,204.709L57.393,204.669L57.419,204.629L57.446,204.589L57.472,204.55L57.499,204.511L57.526,204.471L57.554,204.432L57.582,204.393L57.609,204.355L57.638,204.316L57.666,204.277L57.695,204.239L57.724,204.201L57.753,204.163L57.783,204.125L57.813,204.087L57.843,204.049L57.873,204.012L57.904,203.974L57.935,203.937L57.966,203.9L57.998,203.863L58.03,203.826L58.062,203.79L58.094,203.753L58.127,203.717L58.159,203.681L58.192,203.645L58.226,203.609L58.26,203.573L58.294,203.538L58.328,203.502L58.362,203.467L58.397,203.433L73.058,188.771L73.093,188.737L73.128,188.702L73.163,188.668L73.199,188.634L73.235,188.6L73.27,188.567L73.306,188.534L73.342,188.501L73.379,188.468L73.415,188.436L73.452,188.404L73.489,188.372L73.526,188.341L73.563,188.309L73.6,188.278L73.637,188.248L73.675,188.217L73.712,188.187L73.75,188.157L73.788,188.128L73.826,188.098L73.865,188.069L73.903,188.041L73.942,188.012L73.98,187.984L74.019,187.956L74.058,187.928L74.097,187.901L74.136,187.873L74.176,187.847L74.215,187.82L74.255,187.794L74.295,187.768L74.334,187.742L74.374,187.716L74.415,187.691L74.455,187.666L74.495,187.641L74.536,187.617L74.576,187.593L74.617,187.569L74.658,187.545L74.699,187.522L74.74,187.499L74.781,187.476L74.822,187.454L74.864,187.431L74.905,187.409L74.947,187.388L74.988,187.366L75.03,187.345L75.072,187.324L75.114,187.304L75.156,187.283L75.198,187.263L75.241,187.244L75.283,187.224L75.326,187.205L75.368,187.186L75.411,187.167L75.454,187.149L75.496,187.131L75.539,187.113L75.582,187.095L75.625,187.078L75.669,187.061L75.712,187.044L75.755,187.027L75.799,187.011L75.842,186.995L75.886,186.979L75.929,186.964L75.973,186.949L76.017,186.934L76.061,186.919L76.105,186.905L76.149,186.891L76.193,186.877L76.237,186.864L76.281,186.851L76.326,186.838L76.37,186.825L76.414,186.812L76.459,186.8L76.503,186.788L76.548,186.777L76.593,186.766L76.637,186.755L76.682,186.744L76.727,186.733L76.772,186.723L76.816,186.713L76.861,186.703L76.906,186.694L76.951,186.685L76.996,186.676L77.042,186.667L77.087,186.659L77.132,186.651L77.177,186.643L77.222,186.636L77.268,186.628L77.313,186.622L77.358,186.615L77.404,186.608L77.449,186.602L77.495,186.596L77.54,186.591L77.586,186.586L77.631,186.58L77.677,186.576L77.722,186.571L77.768,186.567L77.814,186.563L77.859,186.559L77.905,186.556L77.95,186.553L77.996,186.55L78.042,186.547L78.088,186.545L78.133,186.543L78.179,186.541L78.225,186.54L78.27,186.538L78.316,186.538L78.362,186.537L78.408,186.536L78.454,186.536L78.499,186.536ZM78.411,187.146L78.369,187.146L78.327,187.147L78.285,187.148L78.243,187.149L78.201,187.15L78.159,187.152L78.117,187.154L78.075,187.156L78.032,187.158L77.99,187.161L77.948,187.164L77.906,187.167L77.864,187.17L77.822,187.174L77.78,187.178L77.738,187.182L77.697,187.187L77.655,187.191L77.613,187.196L77.571,187.201L77.529,187.207L77.487,187.212L77.445,187.218L77.404,187.224L77.362,187.231L77.32,187.237L77.279,187.244L77.237,187.251L77.195,187.259L77.154,187.266L77.112,187.274L77.071,187.283L77.029,187.291L76.988,187.3L76.947,187.309L76.905,187.318L76.864,187.327L76.823,187.337L76.782,187.347L76.741,187.357L76.7,187.367L76.659,187.378L76.618,187.389L76.577,187.4L76.536,187.411L76.495,187.423L76.454,187.435L76.414,187.447L76.373,187.46L76.332,187.472L76.292,187.485L76.252,187.498L76.211,187.512L76.171,187.526L76.131,187.539L76.091,187.554L76.05,187.568L76.01,187.583L75.97,187.598L75.931,187.613L75.891,187.628L75.851,187.644L75.811,187.66L75.772,187.676L75.732,187.693L75.693,187.709L75.654,187.726L75.614,187.743L75.575,187.761L75.536,187.778L75.497,187.796L75.458,187.815L75.42,187.833L75.381,187.852L75.342,187.871L75.304,187.89L75.265,187.909L75.227,187.929L75.189,187.949L75.15,187.969L75.112,187.99L75.074,188.01L75.037,188.031L74.999,188.053L74.961,188.074L74.924,188.096L74.886,188.118L74.849,188.14L74.812,188.162L74.775,188.185L74.738,188.208L74.701,188.231L74.664,188.255L74.627,188.278L74.591,188.302L74.554,188.327L74.518,188.351L74.482,188.376L74.446,188.401L74.41,188.426L74.374,188.451L74.338,188.477L74.303,188.503L74.267,188.529L74.232,188.556L74.197,188.583L74.161,188.61L74.127,188.637L74.092,188.664L74.057,188.692L74.023,188.72L73.988,188.748L73.954,188.777L73.92,188.806L73.886,188.835L73.852,188.864L73.818,188.893L73.785,188.923L73.751,188.953L73.718,188.983L73.685,189.014L73.652,189.045L73.619,189.076L73.586,189.107L73.554,189.139L73.521,189.17L73.489,189.203L58.828,203.863L58.796,203.896L58.764,203.928L58.733,203.96L58.701,203.993L58.67,204.026L58.64,204.059L58.609,204.092L58.579,204.125L58.549,204.159L58.519,204.192L58.49,204.226L58.46,204.26L58.431,204.294L58.402,204.328L58.374,204.362L58.346,204.397L58.318,204.431L58.29,204.466L58.263,204.501L58.235,204.536L58.208,204.571L58.182,204.606L58.155,204.641L58.129,204.677L58.103,204.712L58.077,204.748L58.052,204.784L58.026,204.82L58.001,204.856L57.977,204.892L57.952,204.929L57.928,204.965L57.904,205.001L57.88,205.038L57.857,205.075L57.834,205.112L57.811,205.149L57.788,205.186L57.766,205.223L57.743,205.26L57.721,205.298L57.7,205.336L57.678,205.373L57.657,205.411L57.636,205.449L57.615,205.487L57.595,205.525L57.575,205.563L57.555,205.601L57.535,205.639L57.516,205.678L57.496,205.716L57.478,205.755L57.459,205.794L57.44,205.833L57.422,205.872L57.404,205.91L57.387,205.95L57.369,205.989L57.352,206.028L57.335,206.067L57.318,206.107L57.302,206.146L57.286,206.186L57.27,206.225L57.254,206.265L57.239,206.305L57.223,206.345L57.208,206.385L57.194,206.425L57.179,206.465L57.165,206.505L57.151,206.545L57.138,206.586L57.124,206.626L57.111,206.666L57.098,206.707L57.085,206.747L57.073,206.788L57.061,206.829L57.049,206.869L57.037,206.91L57.026,206.951L57.015,206.992L57.004,207.033L56.993,207.074L56.983,207.115L56.972,207.156L56.962,207.197L56.953,207.238L56.943,207.28L56.934,207.321L56.925,207.362L56.917,207.404L56.908,207.445L56.9,207.487L56.892,207.528L56.885,207.57L56.877,207.611L56.87,207.653L56.863,207.695L56.856,207.736L56.85,207.778L56.844,207.82L56.838,207.862L56.832,207.903L56.827,207.945L56.822,207.987L56.817,208.029L56.812,208.071L56.808,208.113L56.804,208.155L56.8,208.197L56.796,208.239L56.793,208.281L56.79,208.323L56.787,208.365L56.784,208.407L56.782,208.449L56.78,208.491L56.778,208.533L56.776,208.575L56.775,208.617L56.774,208.659L56.773,208.701L56.772,208.743L56.772,208.786L56.772,208.828L56.772,208.87L56.772,208.912L56.773,208.954L56.774,208.996L56.775,209.038L56.776,209.08L56.778,209.123L56.78,209.165L56.782,209.207L56.784,209.249L56.787,209.291L56.79,209.333L56.793,209.375L56.796,209.417L56.8,209.459L56.804,209.501L56.808,209.543L56.812,209.585L56.817,209.627L56.822,209.669L56.827,209.71L56.832,209.752L56.838,209.794L56.844,209.836L56.85,209.878L56.856,209.919L56.863,209.961L56.87,210.003L56.877,210.044L56.885,210.086L56.892,210.127L56.9,210.169L56.908,210.21L56.917,210.252L56.925,210.293L56.934,210.335L56.943,210.376L56.953,210.417L56.962,210.458L56.972,210.5L56.983,210.541L56.993,210.582L57.004,210.623L57.015,210.664L57.026,210.705L57.037,210.745L57.049,210.786L57.061,210.827L57.073,210.868L57.085,210.908L57.098,210.949L57.111,210.989L57.124,211.03L57.138,211.07L57.151,211.11L57.165,211.151L57.179,211.191L57.194,211.231L57.208,211.271L57.223,211.311L57.239,211.351L57.254,211.39L57.27,211.43L57.286,211.47L57.302,211.509L57.318,211.549L57.335,211.588L57.352,211.628L57.369,211.667L57.387,211.706L57.404,211.745L57.422,211.784L57.44,211.823L57.459,211.862L57.478,211.901L57.496,211.939L57.516,211.978L57.535,212.016L57.555,212.054L57.575,212.093L57.595,212.131L57.615,212.169L57.636,212.207L57.657,212.245L57.678,212.282L57.7,212.32L57.721,212.358L57.743,212.395L57.766,212.432L57.788,212.47L57.811,212.507L57.834,212.544L57.857,212.581L57.88,212.617L57.904,212.654L57.928,212.691L57.952,212.727L57.977,212.763L58.001,212.8L58.026,212.836L58.052,212.872L58.077,212.907L58.103,212.943L58.129,212.979L58.155,213.014L58.182,213.05L58.208,213.085L58.235,213.12L58.263,213.155L58.29,213.19L58.318,213.224L58.346,213.259L58.374,213.293L58.402,213.327L58.431,213.362L58.46,213.396L58.49,213.429L58.519,213.463L58.549,213.497L58.579,213.53L58.609,213.563L58.64,213.597L58.67,213.63L58.701,213.662L58.733,213.695L58.764,213.728L58.796,213.76L58.828,213.793L73.489,228.453L73.521,228.485L73.554,228.517L73.586,228.549L73.619,228.58L73.652,228.611L73.685,228.642L73.718,228.672L73.751,228.703L73.785,228.733L73.818,228.762L73.852,228.792L73.886,228.821L73.92,228.85L73.954,228.879L73.988,228.907L74.023,228.936L74.057,228.964L74.092,228.991L74.127,229.019L74.161,229.046L74.197,229.073L74.232,229.1L74.267,229.126L74.303,229.152L74.338,229.178L74.374,229.204L74.41,229.23L74.446,229.255L74.482,229.28L74.518,229.305L74.554,229.329L74.591,229.353L74.627,229.377L74.664,229.401L74.701,229.424L74.738,229.448L74.775,229.471L74.812,229.493L74.849,229.516L74.886,229.538L74.924,229.56L74.961,229.582L74.999,229.603L75.037,229.624L75.074,229.645L75.112,229.666L75.15,229.686L75.189,229.707L75.227,229.727L75.265,229.746L75.304,229.766L75.342,229.785L75.381,229.804L75.42,229.823L75.458,229.841L75.497,229.859L75.536,229.877L75.575,229.895L75.614,229.912L75.654,229.929L75.693,229.946L75.732,229.963L75.772,229.979L75.811,229.996L75.851,230.012L75.891,230.027L75.931,230.043L75.97,230.058L76.01,230.073L76.05,230.088L76.091,230.102L76.131,230.116L76.171,230.13L76.211,230.144L76.252,230.157L76.292,230.17L76.332,230.183L76.373,230.196L76.414,230.208L76.454,230.221L76.495,230.232L76.536,230.244L76.577,230.256L76.618,230.267L76.659,230.278L76.7,230.288L76.741,230.299L76.782,230.309L76.823,230.319L76.864,230.328L76.905,230.338L76.947,230.347L76.988,230.356L77.029,230.365L77.071,230.373L77.112,230.381L77.154,230.389L77.195,230.397L77.237,230.404L77.279,230.411L77.32,230.418L77.362,230.425L77.404,230.431L77.445,230.437L77.487,230.443L77.529,230.449L77.571,230.454L77.613,230.46L77.655,230.464L77.697,230.469L77.738,230.473L77.78,230.478L77.822,230.482L77.864,230.485L77.906,230.489L77.948,230.492L77.99,230.495L78.032,230.497L78.075,230.5L78.117,230.502L78.159,230.504L78.201,230.505L78.243,230.507L78.285,230.508L78.327,230.509L78.369,230.509L78.411,230.51L78.454,230.51L78.496,230.51L78.538,230.509L78.58,230.509L78.622,230.508L78.664,230.507L78.706,230.505L78.748,230.504L78.79,230.502L78.832,230.5L78.875,230.497L78.917,230.495L78.959,230.492L79.001,230.489L79.043,230.485L79.085,230.482L79.127,230.478L79.169,230.473L79.211,230.469L79.252,230.464L79.294,230.46L79.336,230.454L79.378,230.449L79.42,230.443L79.462,230.437L79.503,230.431L79.545,230.425L79.587,230.418L79.628,230.411L79.67,230.404L79.712,230.397L79.753,230.389L79.795,230.381L79.836,230.373L79.878,230.365L79.919,230.356L79.96,230.347L80.002,230.338L80.043,230.329L80.084,230.319L80.125,230.309L80.166,230.299L80.207,230.288L80.248,230.278L80.289,230.267L80.33,230.256L80.371,230.244L80.412,230.232L80.453,230.221L80.493,230.208L80.534,230.196L80.574,230.183L80.615,230.17L80.655,230.157L80.696,230.144L80.736,230.13L80.776,230.116L80.816,230.102L80.857,230.088L80.897,230.073L80.937,230.058L80.976,230.043L81.016,230.027L81.056,230.012L81.096,229.996L81.135,229.979L81.175,229.963L81.214,229.946L81.253,229.929L81.293,229.912L81.332,229.895L81.371,229.877L81.41,229.859L81.449,229.841L81.488,229.823L81.526,229.804L81.565,229.785L81.603,229.766L81.642,229.746L81.68,229.726L81.718,229.707L81.757,229.686L81.795,229.666L81.833,229.645L81.87,229.624L81.908,229.603L81.946,229.582L81.983,229.56L82.021,229.538L82.058,229.516L82.095,229.493L82.132,229.471L82.169,229.448L82.206,229.424L82.243,229.401L82.28,229.377L82.316,229.353L82.353,229.329L82.389,229.305L82.425,229.28L82.461,229.255L82.497,229.23L82.533,229.204L82.569,229.178L82.604,229.152L82.64,229.126L82.675,229.1L82.71,229.073L82.745,229.046L82.78,229.019L82.815,228.991L82.85,228.964L82.884,228.936L82.919,228.907L82.953,228.879L82.987,228.85L83.021,228.821L83.055,228.792L83.089,228.762L83.122,228.733L83.156,228.703L83.189,228.672L83.222,228.642L83.255,228.611L83.288,228.58L83.321,228.549L83.353,228.517L83.386,228.485L83.418,228.453L98.079,213.793L98.111,213.76L98.143,213.728L98.174,213.695L98.206,213.662L98.237,213.63L98.267,213.597L98.298,213.563L98.328,213.53L98.358,213.497L98.388,213.463L98.417,213.429L98.447,213.396L98.476,213.362L98.505,213.327L98.533,213.293L98.561,213.259L98.589,213.224L98.617,213.19L98.644,213.155L98.672,213.12L98.699,213.085L98.725,213.05L98.752,213.014L98.778,212.979L98.804,212.943L98.83,212.907L98.855,212.872L98.881,212.836L98.905,212.8L98.93,212.763L98.955,212.727L98.979,212.691L99.003,212.654L99.027,212.617L99.05,212.581L99.073,212.544L99.096,212.507L99.119,212.47L99.141,212.432L99.164,212.395L99.186,212.358L99.207,212.32L99.229,212.282L99.25,212.245L99.271,212.207L99.292,212.169L99.312,212.131L99.332,212.093L99.352,212.055L99.372,212.016L99.391,211.978L99.411,211.939L99.43,211.9L99.448,211.862L99.467,211.823L99.485,211.784L99.503,211.745L99.521,211.706L99.538,211.667L99.555,211.628L99.572,211.588L99.589,211.549L99.605,211.509L99.621,211.47L99.637,211.43L99.653,211.39L99.668,211.351L99.684,211.311L99.699,211.271L99.713,211.231L99.728,211.191L99.742,211.151L99.756,211.11L99.769,211.07L99.783,211.03L99.796,210.989L99.809,210.949L99.822,210.908L99.834,210.868L99.846,210.827L99.858,210.786L99.87,210.745L99.881,210.705L99.892,210.664L99.903,210.623L99.914,210.582L99.924,210.541L99.935,210.5L99.945,210.458L99.954,210.417L99.964,210.376L99.973,210.335L99.982,210.293L99.99,210.252L99.999,210.21L100.007,210.169L100.015,210.127L100.023,210.086L100.03,210.044L100.037,210.003L100.044,209.961L100.051,209.919L100.057,209.878L100.063,209.836L100.069,209.794L100.075,209.752L100.08,209.71L100.085,209.669L100.09,209.627L100.095,209.585L100.099,209.543L100.103,209.501L100.107,209.459L100.111,209.417L100.114,209.375L100.117,209.333L100.12,209.291L100.123,209.249L100.125,209.207L100.127,209.165L100.129,209.123L100.131,209.08L100.132,209.038L100.133,208.996L100.134,208.954L100.135,208.912L100.135,208.87L100.135,208.828L100.135,208.786L100.135,208.743L100.134,208.701L100.133,208.659L100.132,208.617L100.131,208.575L100.129,208.533L100.127,208.491L100.125,208.449L100.123,208.407L100.12,208.365L100.117,208.323L100.114,208.281L100.111,208.239L100.107,208.197L100.103,208.155L100.099,208.113L100.095,208.071L100.09,208.029L100.085,207.987L100.08,207.945L100.075,207.903L100.069,207.862L100.063,207.82L100.057,207.778L100.051,207.736L100.044,207.695L100.037,207.653L100.03,207.611L100.023,207.57L100.015,207.528L100.007,207.487L99.999,207.445L99.99,207.404L99.982,207.362L99.973,207.321L99.964,207.28L99.954,207.238L99.945,207.197L99.935,207.156L99.924,207.115L99.914,207.074L99.903,207.033L99.892,206.992L99.881,206.951L99.87,206.91L99.858,206.869L99.846,206.829L99.834,206.788L99.822,206.747L99.809,206.707L99.796,206.666L99.783,206.626L99.769,206.585L99.756,206.545L99.742,206.505L99.728,206.465L99.713,206.425L99.699,206.385L99.684,206.345L99.668,206.305L99.653,206.265L99.637,206.225L99.621,206.186L99.605,206.146L99.589,206.107L99.572,206.067L99.555,206.028L99.538,205.989L99.521,205.95L99.503,205.911L99.485,205.871L99.467,205.833L99.448,205.794L99.43,205.755L99.411,205.716L99.391,205.678L99.372,205.639L99.352,205.601L99.332,205.563L99.312,205.525L99.292,205.487L99.271,205.449L99.25,205.411L99.229,205.373L99.207,205.336L99.186,205.298L99.164,205.261L99.141,205.223L99.119,205.186L99.096,205.149L99.073,205.112L99.05,205.075L99.027,205.038L99.003,205.002L98.979,204.965L98.955,204.929L98.93,204.892L98.905,204.856L98.881,204.82L98.855,204.784L98.83,204.748L98.804,204.712L98.778,204.677L98.752,204.641L98.725,204.606L98.699,204.571L98.672,204.536L98.644,204.501L98.617,204.466L98.589,204.431L98.561,204.397L98.533,204.362L98.505,204.328L98.476,204.294L98.447,204.26L98.417,204.226L98.388,204.192L98.358,204.159L98.328,204.125L98.298,204.092L98.267,204.059L98.237,204.026L98.206,203.993L98.174,203.96L98.143,203.928L98.111,203.896L98.079,203.863L83.418,189.203L83.386,189.17L83.353,189.138L83.321,189.107L83.288,189.076L83.255,189.045L83.222,189.014L83.189,188.983L83.156,188.953L83.122,188.923L83.089,188.893L83.055,188.864L83.021,188.835L82.987,188.806L82.953,188.777L82.919,188.748L82.884,188.72L82.85,188.692L82.815,188.664L82.78,188.637L82.745,188.61L82.71,188.583L82.675,188.556L82.64,188.529L82.604,188.503L82.569,188.477L82.533,188.451L82.497,188.426L82.461,188.401L82.425,188.376L82.389,188.351L82.353,188.327L82.316,188.302L82.28,188.278L82.243,188.255L82.206,188.231L82.169,188.208L82.132,188.185L82.095,188.162L82.058,188.14L82.021,188.118L81.983,188.096L81.946,188.074L81.908,188.053L81.87,188.031L81.833,188.01L81.795,187.99L81.757,187.969L81.718,187.949L81.68,187.929L81.642,187.909L81.603,187.89L81.565,187.871L81.526,187.852L81.487,187.833L81.449,187.815L81.41,187.796L81.371,187.778L81.332,187.761L81.293,187.743L81.253,187.726L81.214,187.709L81.175,187.693L81.135,187.676L81.096,187.66L81.056,187.644L81.016,187.628L80.976,187.613L80.937,187.598L80.897,187.583L80.857,187.568L80.816,187.554L80.776,187.539L80.736,187.526L80.696,187.512L80.655,187.498L80.615,187.485L80.574,187.472L80.534,187.46L80.493,187.447L80.453,187.435L80.412,187.423L80.371,187.411L80.33,187.4L80.289,187.389L80.248,187.378L80.207,187.367L80.166,187.357L80.125,187.347L80.084,187.337L80.043,187.327L80.002,187.318L79.96,187.309L79.919,187.3L79.878,187.291L79.836,187.283L79.795,187.274L79.753,187.266L79.712,187.259L79.67,187.251L79.628,187.244L79.587,187.237L79.545,187.231L79.503,187.224L79.462,187.218L79.42,187.212L79.378,187.207L79.336,187.201L79.294,187.196L79.252,187.191L79.211,187.187L79.169,187.182L79.127,187.178L79.085,187.174L79.043,187.17L79.001,187.167L78.959,187.164L78.917,187.161L78.875,187.158L78.832,187.156L78.79,187.154L78.748,187.152L78.706,187.15L78.664,187.149L78.622,187.148L78.58,187.147L78.538,187.146L78.496,187.146L78.454,187.146L78.411,187.146Z" style="fill:rgb(30,30,30);"/>
            </g>
        </g>
    </g>
</svg>
