<?xml version="1.0" encoding="UTF-8" standalone="no"?><!DOCTYPE svg PUBLIC "-//W3C//DTD SVG 1.1//EN" "http://www.w3.org/Graphics/SVG/1.1/DTD/svg11.dtd"><svg width="100%" height="100%" viewBox="0 0 1123 118" version="1.1" xmlns="http://www.w3.org/2000/svg" xmlns:xlink="http://www.w3.org/1999/xlink" xml:space="preserve" style="fill-rule:evenodd;clip-rule:evenodd;stroke-linejoin:round;stroke-miterlimit:1.41421;"><g><path d="M2.5,33.7l20.4,-0.15l21,61.05l20.55,-61.05l19.65,0l-30.6,80.25l-20.1,0l-30.9,-80.1Z" style="fill:none;stroke:#000d11;stroke-width:5px;"/><rect x="96.1" y="2.5" width="19.5" height="111.3" style="fill:none;stroke:#000d11;stroke-width:5px;"/><path d="M188.05,113.8l0,-9.75c-2.8,3.5 -6.4,6.15 -10.8,7.95c-4.4,1.8 -9.45,2.7 -15.15,2.7c-5.6,0 -10.525,-1.075 -14.775,-3.225c-4.25,-2.15 -7.525,-5.125 -9.825,-8.925c-2.3,-3.8 -3.45,-8.05 -3.45,-12.75c0,-7.5 2.65,-13.375 7.95,-17.625c5.3,-4.25 12.8,-6.425 22.5,-6.525l23.4,0l0,-2.1c0,-4.7 -1.55,-8.35 -4.65,-10.95c-3.1,-2.6 -7.6,-3.9 -13.5,-3.9c-7.6,0 -15.55,2.5 -23.85,7.5l-7.05,-13.5c6.3,-3.5 12.025,-6.025 17.175,-7.575c5.15,-1.55 11.175,-2.325 18.075,-2.325c10.4,0 18.475,2.5 24.225,7.5c5.75,5 8.675,12 8.775,21l0.15,52.5l-19.2,0Zm-6.9,-18.075c4,-2.65 6.25,-5.925 6.75,-9.825l0,-7.2l-20.25,0c-5.2,0 -9.025,0.775 -11.475,2.325c-2.45,1.55 -3.675,4.075 -3.675,7.575c0,3.4 1.275,6.1 3.825,8.1c2.55,2 6.025,3 10.425,3c5.6,0 10.4,-1.325 14.4,-3.975Z" style="fill:none;stroke:#000d11;stroke-width:5px;"/><path d="M276.55,113.8l0,-9.75c-2.8,3.5 -6.4,6.15 -10.8,7.95c-4.4,1.8 -9.45,2.7 -15.15,2.7c-5.6,0 -10.525,-1.075 -14.775,-3.225c-4.25,-2.15 -7.525,-5.125 -9.825,-8.925c-2.3,-3.8 -3.45,-8.05 -3.45,-12.75c0,-7.5 2.65,-13.375 7.95,-17.625c5.3,-4.25 12.8,-6.425 22.5,-6.525l23.4,0l0,-2.1c0,-4.7 -1.55,-8.35 -4.65,-10.95c-3.1,-2.6 -7.6,-3.9 -13.5,-3.9c-7.6,0 -15.55,2.5 -23.85,7.5l-7.05,-13.5c6.3,-3.5 12.025,-6.025 17.175,-7.575c5.15,-1.55 11.175,-2.325 18.075,-2.325c10.4,0 18.475,2.5 24.225,7.5c5.75,5 8.675,12 8.775,21l0.15,52.5l-19.2,0Zm-6.9,-18.075c4,-2.65 6.25,-5.925 6.75,-9.825l0,-7.2l-20.25,0c-5.2,0 -9.025,0.775 -11.475,2.325c-2.45,1.55 -3.675,4.075 -3.675,7.575c0,3.4 1.275,6.1 3.825,8.1c2.55,2 6.025,3 10.425,3c5.6,0 10.4,-1.325 14.4,-3.975Z" style="fill:none;stroke:#000d11;stroke-width:5px;"/><path d="M387.7,41.125c5.3,5.55 7.95,13.075 7.95,22.575l0,50.1l-19.65,0l0,-44.4c0,-5.6 -1.6,-10.025 -4.8,-13.275c-3.2,-3.25 -7.55,-4.875 -13.05,-4.875c-6.5,0.1 -11.625,2.3 -15.375,6.6c-3.75,4.3 -5.625,9.8 -5.625,16.5l0,39.45l-19.5,0l0,-80.25l19.5,0l0,15c5.5,-10.3 15.1,-15.55 28.8,-15.75c9.2,0 16.45,2.775 21.75,8.325Z" style="fill:none;stroke:#000d11;stroke-width:5px;"/><path d="M494.95,2.5l0,111.3l-19.5,0l0,-12.9c-2.9,4.5 -6.625,7.925 -11.175,10.275c-4.55,2.35 -9.825,3.525 -15.825,3.525c-7.6,0 -14.275,-1.725 -20.025,-5.175c-5.75,-3.45 -10.225,-8.3 -13.425,-14.55c-3.2,-6.25 -4.8,-13.425 -4.8,-21.525c0,-8 1.575,-15.075 4.725,-21.225c3.15,-6.15 7.6,-10.925 13.35,-14.325c5.75,-3.4 12.325,-5.1 19.725,-5.1c6.1,0 11.45,1.2 16.05,3.6c4.6,2.4 8.4,5.85 11.4,10.35l0,-44.25l19.5,0Zm-25.875,89.025c4.25,-4.55 6.375,-10.425 6.375,-17.625c0,-7.2 -2.125,-13.075 -6.375,-17.625c-4.25,-4.55 -9.725,-6.825 -16.425,-6.825c-6.7,0 -12.15,2.275 -16.35,6.825c-4.2,4.55 -6.35,10.425 -6.45,17.625c0.1,7.2 2.25,13.075 6.45,17.625c4.2,4.55 9.65,6.825 16.35,6.825c6.7,0 12.175,-2.275 16.425,-6.825Z" style="fill:none;stroke:#000d11;stroke-width:5px;"/><path d="M582.325,43.9c6.45,7.3 9.675,17.55 9.675,30.75c0,2.6 -0.05,4.55 -0.15,5.85l-59.25,0c1.3,5.7 3.975,10.175 8.025,13.425c4.05,3.25 9.025,4.875 14.925,4.875c4.1,0 8.025,-0.775 11.775,-2.325c3.75,-1.55 7.025,-3.775 9.825,-6.675l10.5,10.95c-4,4.4 -8.875,7.8 -14.625,10.2c-5.75,2.4 -12.125,3.6 -19.125,3.6c-8.2,0 -15.425,-1.7 -21.675,-5.1c-6.25,-3.4 -11.075,-8.175 -14.475,-14.325c-3.4,-6.15 -5.1,-13.225 -5.1,-21.225c0,-8 1.725,-15.1 5.175,-21.3c3.45,-6.2 8.275,-11.025 14.475,-14.475c6.2,-3.45 13.25,-5.175 21.15,-5.175c12.8,0 22.425,3.65 28.875,10.95Zm-8.175,23.55c-0.2,-5.9 -2.15,-10.6 -5.85,-14.1c-3.7,-3.5 -8.6,-5.25 -14.7,-5.25c-5.7,0 -10.475,1.725 -14.325,5.175c-3.85,3.45 -6.225,8.175 -7.125,14.175l42,0Z" style="fill:none;stroke:#000d11;stroke-width:5px;"/><path d="M639.325,37.075c4.65,-2.75 10.075,-4.175 16.275,-4.275l0,18.9c-8.3,-0.5 -14.925,1.425 -19.875,5.775c-4.95,4.35 -7.425,10.225 -7.425,17.625l0,38.7l-19.5,0l0,-80.25l19.5,0l0,15.45c2.7,-5.2 6.375,-9.175 11.025,-11.925Z" style="fill:none;stroke:#000d11;stroke-width:5px;"/><path d="M731.575,43.9c6.45,7.3 9.675,17.55 9.675,30.75c0,2.6 -0.05,4.55 -0.15,5.85l-59.25,0c1.3,5.7 3.975,10.175 8.025,13.425c4.05,3.25 9.025,4.875 14.925,4.875c4.1,0 8.025,-0.775 11.775,-2.325c3.75,-1.55 7.025,-3.775 9.825,-6.675l10.5,10.95c-4,4.4 -8.875,7.8 -14.625,10.2c-5.75,2.4 -12.125,3.6 -19.125,3.6c-8.2,0 -15.425,-1.7 -21.675,-5.1c-6.25,-3.4 -11.075,-8.175 -14.475,-14.325c-3.4,-6.15 -5.1,-13.225 -5.1,-21.225c0,-8 1.725,-15.1 5.175,-21.3c3.45,-6.2 8.275,-11.025 14.475,-14.475c6.2,-3.45 13.25,-5.175 21.15,-5.175c12.8,0 22.425,3.65 28.875,10.95Zm-8.175,23.55c-0.2,-5.9 -2.15,-10.6 -5.85,-14.1c-3.7,-3.5 -8.6,-5.25 -14.7,-5.25c-5.7,0 -10.475,1.725 -14.325,5.175c-3.85,3.45 -6.225,8.175 -7.125,14.175l42,0Z" style="fill:none;stroke:#000d11;stroke-width:5px;"/><path d="M828.1,41.125c5.3,5.55 7.95,13.075 7.95,22.575l0,50.1l-19.65,0l0,-44.4c0,-5.6 -1.6,-10.025 -4.8,-13.275c-3.2,-3.25 -7.55,-4.875 -13.05,-4.875c-6.5,0.1 -11.625,2.3 -15.375,6.6c-3.75,4.3 -5.625,9.8 -5.625,16.5l0,39.45l-19.5,0l0,-80.25l19.5,0l0,15c5.5,-10.3 15.1,-15.55 28.8,-15.75c9.2,0 16.45,2.775 21.75,8.325Z" style="fill:none;stroke:#000d11;stroke-width:5px;"/><path d="M870.025,96.55c1.95,2 2.925,4.55 2.925,7.65c0,3.2 -0.975,5.825 -2.925,7.875c-1.95,2.05 -4.425,3.075 -7.425,3.075c-2.9,0 -5.325,-1.05 -7.275,-3.15c-1.95,-2.1 -2.925,-4.7 -2.925,-7.8c0,-3.1 0.975,-5.65 2.925,-7.65c1.95,-2 4.375,-3 7.275,-3c3,0 5.475,1 7.425,3Z" style="fill:none;stroke:#000d11;stroke-width:5px;"/><path d="M1018.3,41.125c5.2,5.55 7.8,13.075 7.8,22.575l0,50.1l-19.65,0l0,-44.4c0,-5.7 -1.575,-10.175 -4.725,-13.425c-3.15,-3.25 -7.425,-4.875 -12.825,-4.875c-6.2,0.2 -11.125,2.45 -14.775,6.75c-3.65,4.3 -5.475,9.75 -5.475,16.35l0,39.6l-19.65,0l0,-44.4c0,-5.7 -1.55,-10.175 -4.65,-13.425c-3.1,-3.25 -7.35,-4.875 -12.75,-4.875c-6.3,0.2 -11.275,2.45 -14.925,6.75c-3.65,4.3 -5.475,9.75 -5.475,16.35l0,39.6l-19.5,0l0,-80.25l19.5,0l0,14.85c5.3,-10.2 14.7,-15.4 28.2,-15.6c7,0 12.875,1.675 17.625,5.025c4.75,3.35 8.075,8.075 9.975,14.175c5.1,-12.6 15.05,-19 29.85,-19.2c9.1,0 16.25,2.775 21.45,8.325Z" style="fill:none;stroke:#000d11;stroke-width:5px;"/><path d="M1110.17,43.9c6.45,7.3 9.675,17.55 9.675,30.75c0,2.6 -0.05,4.55 -0.15,5.85l-59.25,0c1.3,5.7 3.975,10.175 8.025,13.425c4.05,3.25 9.025,4.875 14.925,4.875c4.1,0 8.025,-0.775 11.775,-2.325c3.75,-1.55 7.025,-3.775 9.825,-6.675l10.5,10.95c-4,4.4 -8.875,7.8 -14.625,10.2c-5.75,2.4 -12.125,3.6 -19.125,3.6c-8.2,0 -15.425,-1.7 -21.675,-5.1c-6.25,-3.4 -11.075,-8.175 -14.475,-14.325c-3.4,-6.15 -5.1,-13.225 -5.1,-21.225c0,-8 1.725,-15.1 5.175,-21.3c3.45,-6.2 8.275,-11.025 14.475,-14.475c6.2,-3.45 13.25,-5.175 21.15,-5.175c12.8,0 22.425,3.65 28.875,10.95Zm-8.175,23.55c-0.2,-5.9 -2.15,-10.6 -5.85,-14.1c-3.7,-3.5 -8.6,-5.25 -14.7,-5.25c-5.7,0 -10.475,1.725 -14.325,5.175c-3.85,3.45 -6.225,8.175 -7.125,14.175l42,0Z" style="fill:none;stroke:#000d11;stroke-width:5px;"/></g></svg>